<?xml version="1.0" encoding="UTF-8" standalone="no"?>
<!DOCTYPE svg PUBLIC "-//W3C//DTD SVG 1.1//EN"
 "http://www.w3.org/Graphics/SVG/1.1/DTD/svg11.dtd">
<!-- Generated by graphviz version 6.0.1 (20220911.1526)
 -->
<!-- Title: xyz Pages: 1 -->
<svg width="2330pt" height="332pt"
 viewBox="0.00 0.00 2330.21 332.00" xmlns="http://www.w3.org/2000/svg" xmlns:xlink="http://www.w3.org/1999/xlink">
<g id="graph0" class="graph" transform="scale(1 1) rotate(0) translate(4 328)">
<title>xyz</title>
<polygon fill="white" stroke="none" points="-4,4 -4,-328 2326.21,-328 2326.21,4 -4,4"/>
<!-- NPCalibrationWalker -->
<g id="node1" class="node">
<title>NPCalibrationWalker</title>
<polygon fill="#ffff00" stroke="black" points="588.17,-324 454.17,-324 454.17,-288 588.17,-288 588.17,-324"/>
<text text-anchor="middle" x="521.17" y="-302.3" font-family="Times,serif" font-size="14.00">NPCalibrationWalker</text>
</g>
<!-- WalkerPostProcessing -->
<g id="node9" class="node">
<title>WalkerPostProcessing</title>
<ellipse fill="#ccffff" stroke="black" cx="462.17" cy="-90" rx="89.08" ry="18"/>
<text text-anchor="middle" x="462.17" y="-86.3" font-family="Times,serif" font-size="14.00">WalkerPostProcessing</text>
</g>
<!-- NPCalibrationWalker&#45;&gt;WalkerPostProcessing -->
<g id="edge7" class="edge">
<title>NPCalibrationWalker&#45;&gt;WalkerPostProcessing</title>
<path fill="none" stroke="black" d="M454.04,-297.77C424.78,-290.9 393.12,-277.62 375.17,-252 342.96,-206.04 396.62,-146.85 432.98,-114.57"/>
<polygon fill="black" stroke="black" points="435.62,-116.92 440.89,-107.73 431.04,-111.63 435.62,-116.92"/>
</g>
<!-- BivarGibbsDirichletwithSlice -->
<g id="node11" class="node">
<title>BivarGibbsDirichletwithSlice</title>
<ellipse fill="#ccffff" stroke="black" cx="1275.17" cy="-234" rx="115.88" ry="18"/>
<text text-anchor="middle" x="1275.17" y="-230.3" font-family="Times,serif" font-size="14.00">BivarGibbsDirichletwithSlice</text>
</g>
<!-- NPCalibrationWalker&#45;&gt;BivarGibbsDirichletwithSlice -->
<g id="edge17" class="edge">
<title>NPCalibrationWalker&#45;&gt;BivarGibbsDirichletwithSlice</title>
<path fill="none" stroke="black" d="M588.41,-298.76C719.62,-286.58 1010.7,-259.55 1168.5,-244.9"/>
<polygon fill="black" stroke="black" points="1169.06,-248.37 1178.7,-243.96 1168.42,-241.4 1169.06,-248.37"/>
</g>
<!-- calibind -->
<g id="node14" class="node">
<title>calibind</title>
<ellipse fill="none" stroke="black" cx="607.17" cy="-162" rx="38.99" ry="18"/>
<text text-anchor="middle" x="607.17" y="-158.3" font-family="Times,serif" font-size="14.00">calibind</text>
</g>
<!-- NPCalibrationWalker&#45;&gt;calibind -->
<g id="edge29" class="edge">
<title>NPCalibrationWalker&#45;&gt;calibind</title>
<path fill="none" stroke="black" d="M454.04,-295.07C428.39,-287.65 401.63,-274.68 386.17,-252 377.15,-238.78 376.26,-228.56 386.17,-216 407.25,-189.26 500.4,-174.48 558.83,-167.69"/>
<polygon fill="black" stroke="black" points="559.41,-171.15 568.96,-166.56 558.63,-164.19 559.41,-171.15"/>
</g>
<!-- FindCalCurve -->
<g id="node19" class="node">
<title>FindCalCurve</title>
<ellipse fill="#ccffff" stroke="black" cx="929.17" cy="-234" rx="60.39" ry="18"/>
<text text-anchor="middle" x="929.17" y="-230.3" font-family="Times,serif" font-size="14.00">FindCalCurve</text>
</g>
<!-- NPCalibrationWalker&#45;&gt;FindCalCurve -->
<g id="edge45" class="edge">
<title>NPCalibrationWalker&#45;&gt;FindCalCurve</title>
<path fill="none" stroke="black" d="M588.37,-296.24C656.98,-286.89 766.43,-270.84 860.17,-252 865.11,-251.01 870.22,-249.9 875.34,-248.74"/>
<polygon fill="black" stroke="black" points="876.18,-252.13 885.12,-246.45 874.59,-245.32 876.18,-252.13"/>
</g>
<!-- plotindpost -->
<g id="node27" class="node">
<title>plotindpost</title>
<ellipse fill="#ccffff" stroke="black" cx="251.17" cy="-234" rx="50.09" ry="18"/>
<text text-anchor="middle" x="251.17" y="-230.3" font-family="Times,serif" font-size="14.00">plotindpost</text>
</g>
<!-- NPCalibrationWalker&#45;&gt;plotindpost -->
<g id="edge62" class="edge">
<title>NPCalibrationWalker&#45;&gt;plotindpost</title>
<path fill="none" stroke="black" d="M454.34,-287.95C414.01,-277.62 361.61,-264.14 315.17,-252 310.22,-250.71 305.06,-249.35 299.91,-247.99"/>
<polygon fill="black" stroke="black" points="300.64,-244.56 290.08,-245.39 298.85,-251.33 300.64,-244.56"/>
</g>
<!-- WalkerBivarDirichlet -->
<g id="node36" class="node">
<title>WalkerBivarDirichlet</title>
<ellipse fill="#ccffff" stroke="black" cx="1496.17" cy="-234" rx="87.18" ry="18"/>
<text text-anchor="middle" x="1496.17" y="-230.3" font-family="Times,serif" font-size="14.00">WalkerBivarDirichlet</text>
</g>
<!-- NPCalibrationWalker&#45;&gt;WalkerBivarDirichlet -->
<g id="edge1" class="edge">
<title>NPCalibrationWalker&#45;&gt;WalkerBivarDirichlet</title>
<path fill="none" stroke="black" d="M588.25,-298.76C627.06,-295.29 676.84,-291.06 721.17,-288 1022.65,-267.2 1099.93,-286.41 1400.17,-252 1408.39,-251.06 1416.97,-249.86 1425.47,-248.53"/>
<polygon fill="black" stroke="black" points="1426.08,-251.97 1435.39,-246.92 1424.96,-245.06 1426.08,-251.97"/>
</g>
<!-- NPCalibrationNeal -->
<g id="node2" class="node">
<title>NPCalibrationNeal</title>
<polygon fill="#ffff00" stroke="black" points="311.17,-324 191.17,-324 191.17,-288 311.17,-288 311.17,-324"/>
<text text-anchor="middle" x="251.17" y="-302.3" font-family="Times,serif" font-size="14.00">NPCalibrationNeal</text>
</g>
<!-- NealPostProcessing -->
<g id="node8" class="node">
<title>NealPostProcessing</title>
<ellipse fill="#ccffff" stroke="black" cx="102.17" cy="-234" rx="80.69" ry="18"/>
<text text-anchor="middle" x="102.17" y="-230.3" font-family="Times,serif" font-size="14.00">NealPostProcessing</text>
</g>
<!-- NPCalibrationNeal&#45;&gt;NealPostProcessing -->
<g id="edge8" class="edge">
<title>NPCalibrationNeal&#45;&gt;NealPostProcessing</title>
<path fill="none" stroke="black" d="M214.72,-287.88C193.46,-277.89 166.55,-265.25 144.37,-254.83"/>
<polygon fill="black" stroke="black" points="145.73,-251.6 135.19,-250.51 142.75,-257.93 145.73,-251.6"/>
</g>
<!-- NPCalibrationNeal&#45;&gt;BivarGibbsDirichletwithSlice -->
<g id="edge16" class="edge">
<title>NPCalibrationNeal&#45;&gt;BivarGibbsDirichletwithSlice</title>
<path fill="none" stroke="black" d="M311.43,-299.35C349.72,-295.85 400.33,-291.4 445.17,-288 514.4,-282.76 948.17,-255.47 1159.59,-242.23"/>
<polygon fill="black" stroke="black" points="1160.04,-245.71 1169.8,-241.59 1159.6,-238.72 1160.04,-245.71"/>
</g>
<!-- NPCalibrationNeal&#45;&gt;calibind -->
<g id="edge28" class="edge">
<title>NPCalibrationNeal&#45;&gt;calibind</title>
<path fill="none" stroke="black" d="M190.96,-302.03C103.5,-295.63 -42.6,-275.86 12.17,-216 48.75,-176.01 422.37,-165.99 558.17,-163.66"/>
<polygon fill="black" stroke="black" points="558.35,-167.16 568.29,-163.49 558.23,-160.16 558.35,-167.16"/>
</g>
<!-- NPCalibrationNeal&#45;&gt;FindCalCurve -->
<g id="edge44" class="edge">
<title>NPCalibrationNeal&#45;&gt;FindCalCurve</title>
<path fill="none" stroke="black" d="M311.46,-299.7C349.76,-296.34 400.37,-291.91 445.17,-288 629.6,-271.92 677.52,-282.24 860.17,-252 865.28,-251.15 870.58,-250.13 875.86,-249"/>
<polygon fill="black" stroke="black" points="876.96,-252.34 885.95,-246.74 875.42,-245.51 876.96,-252.34"/>
</g>
<!-- NPCalibrationNeal&#45;&gt;plotindpost -->
<g id="edge61" class="edge">
<title>NPCalibrationNeal&#45;&gt;plotindpost</title>
<path fill="none" stroke="black" d="M251.17,-287.7C251.17,-279.98 251.17,-270.71 251.17,-262.11"/>
<polygon fill="black" stroke="black" points="254.67,-262.1 251.17,-252.1 247.67,-262.1 254.67,-262.1"/>
</g>
<!-- SimulationStudy_Cluster -->
<g id="node3" class="node">
<title>SimulationStudy_Cluster</title>
<polygon fill="#ffff00" stroke="black" points="884.17,-324 730.17,-324 730.17,-288 884.17,-288 884.17,-324"/>
<text text-anchor="middle" x="807.17" y="-302.3" font-family="Times,serif" font-size="14.00">SimulationStudy_Cluster</text>
</g>
<!-- SimulationStudy_Cluster&#45;&gt;BivarGibbsDirichletwithSlice -->
<g id="edge18" class="edge">
<title>SimulationStudy_Cluster&#45;&gt;BivarGibbsDirichletwithSlice</title>
<path fill="none" stroke="black" d="M884.27,-292.38C893.67,-290.88 903.13,-289.39 912.17,-288 1004,-273.86 1109.05,-258.63 1182.44,-248.13"/>
<polygon fill="black" stroke="black" points="1183.17,-251.57 1192.58,-246.69 1182.18,-244.64 1183.17,-251.57"/>
</g>
<!-- SimulationStudy_Cluster&#45;&gt;calibind -->
<g id="edge32" class="edge">
<title>SimulationStudy_Cluster&#45;&gt;calibind</title>
<path fill="none" stroke="black" d="M729.91,-300.25C693.65,-294.02 652.67,-280.56 626.17,-252 610.84,-235.49 606.69,-209.76 606.03,-190.2"/>
<polygon fill="black" stroke="black" points="609.53,-190.05 605.97,-180.07 602.53,-190.09 609.53,-190.05"/>
</g>
<!-- CreateDataVaryWeight -->
<g id="node15" class="node">
<title>CreateDataVaryWeight</title>
<ellipse fill="#ccffff" stroke="black" cx="487.17" cy="-234" rx="92.08" ry="18"/>
<text text-anchor="middle" x="487.17" y="-230.3" font-family="Times,serif" font-size="14.00">CreateDataVaryWeight</text>
</g>
<!-- SimulationStudy_Cluster&#45;&gt;CreateDataVaryWeight -->
<g id="edge36" class="edge">
<title>SimulationStudy_Cluster&#45;&gt;CreateDataVaryWeight</title>
<path fill="none" stroke="black" d="M730.11,-288.14C677.06,-276.54 607.19,-261.25 556,-250.06"/>
<polygon fill="black" stroke="black" points="556.54,-246.59 546.02,-247.87 555.04,-253.43 556.54,-246.59"/>
</g>
<!-- SimulationStudy_Cluster&#45;&gt;FindCalCurve -->
<g id="edge47" class="edge">
<title>SimulationStudy_Cluster&#45;&gt;FindCalCurve</title>
<path fill="none" stroke="black" d="M837.01,-287.88C854.07,-278.09 875.58,-265.75 893.52,-255.45"/>
<polygon fill="black" stroke="black" points="895.61,-258.29 902.54,-250.28 892.12,-252.22 895.61,-258.29"/>
</g>
<!-- FindIndLoss -->
<g id="node20" class="node">
<title>FindIndLoss</title>
<ellipse fill="#ccffff" stroke="black" cx="690.17" cy="-234" rx="55.49" ry="18"/>
<text text-anchor="middle" x="690.17" y="-230.3" font-family="Times,serif" font-size="14.00">FindIndLoss</text>
</g>
<!-- SimulationStudy_Cluster&#45;&gt;FindIndLoss -->
<g id="edge51" class="edge">
<title>SimulationStudy_Cluster&#45;&gt;FindIndLoss</title>
<path fill="none" stroke="black" d="M778.55,-287.88C762.07,-278.02 741.27,-265.57 723.99,-255.24"/>
<polygon fill="black" stroke="black" points="725.69,-252.18 715.31,-250.05 722.1,-258.18 725.69,-252.18"/>
</g>
<!-- FindLoss -->
<g id="node22" class="node">
<title>FindLoss</title>
<ellipse fill="#ccffff" stroke="black" cx="807.17" cy="-234" rx="43.59" ry="18"/>
<text text-anchor="middle" x="807.17" y="-230.3" font-family="Times,serif" font-size="14.00">FindLoss</text>
</g>
<!-- SimulationStudy_Cluster&#45;&gt;FindLoss -->
<g id="edge53" class="edge">
<title>SimulationStudy_Cluster&#45;&gt;FindLoss</title>
<path fill="none" stroke="black" d="M807.17,-287.7C807.17,-279.98 807.17,-270.71 807.17,-262.11"/>
<polygon fill="black" stroke="black" points="810.67,-262.1 807.17,-252.1 803.67,-262.1 810.67,-262.1"/>
</g>
<!-- SimulationStudy_Cluster&#45;&gt;WalkerBivarDirichlet -->
<g id="edge3" class="edge">
<title>SimulationStudy_Cluster&#45;&gt;WalkerBivarDirichlet</title>
<path fill="none" stroke="black" d="M884.19,-291.75C893.6,-290.36 903.09,-289.07 912.17,-288 1128.16,-262.6 1184.37,-279 1400.17,-252 1408.17,-251 1416.51,-249.78 1424.8,-248.46"/>
<polygon fill="black" stroke="black" points="1425.55,-251.89 1434.85,-246.81 1424.42,-244.98 1425.55,-251.89"/>
</g>
<!-- SimulationStudyUniform -->
<g id="node4" class="node">
<title>SimulationStudyUniform</title>
<polygon fill="#ffff00" stroke="black" points="1076.67,-324 921.67,-324 921.67,-288 1076.67,-288 1076.67,-324"/>
<text text-anchor="middle" x="999.17" y="-302.3" font-family="Times,serif" font-size="14.00">SimulationStudyUniform</text>
</g>
<!-- SimulationStudyUniform&#45;&gt;BivarGibbsDirichletwithSlice -->
<g id="edge19" class="edge">
<title>SimulationStudyUniform&#45;&gt;BivarGibbsDirichletwithSlice</title>
<path fill="none" stroke="black" d="M1066.33,-287.97C1109.26,-277.08 1164.74,-263.01 1207.72,-252.11"/>
<polygon fill="black" stroke="black" points="1208.69,-255.47 1217.53,-249.62 1206.97,-248.68 1208.69,-255.47"/>
</g>
<!-- SimulationStudyUniform&#45;&gt;calibind -->
<g id="edge33" class="edge">
<title>SimulationStudyUniform&#45;&gt;calibind</title>
<path fill="none" stroke="black" d="M1004.99,-287.84C1010.55,-267.91 1015.75,-235.31 998.17,-216 946.56,-159.34 729.92,-196.91 655.17,-180 651.98,-179.28 648.71,-178.41 645.44,-177.45"/>
<polygon fill="black" stroke="black" points="646.37,-174.07 635.78,-174.37 644.24,-180.74 646.37,-174.07"/>
</g>
<!-- CreateSingleUniformPhaseData -->
<g id="node16" class="node">
<title>CreateSingleUniformPhaseData</title>
<ellipse fill="#ccffff" stroke="black" cx="1763.17" cy="-234" rx="124.28" ry="18"/>
<text text-anchor="middle" x="1763.17" y="-230.3" font-family="Times,serif" font-size="14.00">CreateSingleUniformPhaseData</text>
</g>
<!-- SimulationStudyUniform&#45;&gt;CreateSingleUniformPhaseData -->
<g id="edge38" class="edge">
<title>SimulationStudyUniform&#45;&gt;CreateSingleUniformPhaseData</title>
<path fill="none" stroke="black" d="M1076.88,-289.33C1080.01,-288.85 1083.12,-288.41 1086.17,-288 1309.66,-258.33 1367.52,-271.15 1592.17,-252 1612.6,-250.26 1634.4,-248.22 1655.34,-246.18"/>
<polygon fill="black" stroke="black" points="1655.94,-249.64 1665.55,-245.18 1655.25,-242.68 1655.94,-249.64"/>
</g>
<!-- SimulationStudyUniform&#45;&gt;FindCalCurve -->
<g id="edge48" class="edge">
<title>SimulationStudyUniform&#45;&gt;FindCalCurve</title>
<path fill="none" stroke="black" d="M981.86,-287.7C973.17,-279.01 962.51,-268.34 953.05,-258.89"/>
<polygon fill="black" stroke="black" points="955.34,-256.22 945.79,-251.62 950.39,-261.17 955.34,-256.22"/>
</g>
<!-- SimulationStudyUniform&#45;&gt;FindIndLoss -->
<g id="edge52" class="edge">
<title>SimulationStudyUniform&#45;&gt;FindIndLoss</title>
<path fill="none" stroke="black" d="M921.44,-289.15C873.17,-279.07 809.91,-265.42 754.17,-252 749.84,-250.96 745.35,-249.84 740.86,-248.7"/>
<polygon fill="black" stroke="black" points="741.62,-245.28 731.07,-246.17 739.87,-252.06 741.62,-245.28"/>
</g>
<!-- SimulationStudyUniform&#45;&gt;FindLoss -->
<g id="edge54" class="edge">
<title>SimulationStudyUniform&#45;&gt;FindLoss</title>
<path fill="none" stroke="black" d="M952.2,-287.88C920.34,-276.26 878.64,-261.06 848.13,-249.94"/>
<polygon fill="black" stroke="black" points="849.24,-246.61 838.65,-246.48 846.84,-253.19 849.24,-246.61"/>
</g>
<!-- SimulationStudyUniform&#45;&gt;WalkerBivarDirichlet -->
<g id="edge4" class="edge">
<title>SimulationStudyUniform&#45;&gt;WalkerBivarDirichlet</title>
<path fill="none" stroke="black" d="M1076.9,-289.5C1080.03,-288.97 1083.13,-288.47 1086.17,-288 1224.98,-266.51 1261.17,-272.26 1400.17,-252 1407.82,-250.88 1415.8,-249.63 1423.75,-248.31"/>
<polygon fill="black" stroke="black" points="1424.49,-251.73 1433.77,-246.62 1423.33,-244.83 1424.49,-251.73"/>
</g>
<!-- TestDensityEstimateUniform -->
<g id="node5" class="node">
<title>TestDensityEstimateUniform</title>
<polygon fill="#ffff00" stroke="black" points="1851.17,-324 1675.17,-324 1675.17,-288 1851.17,-288 1851.17,-324"/>
<text text-anchor="middle" x="1763.17" y="-302.3" font-family="Times,serif" font-size="14.00">TestDensityEstimateUniform</text>
</g>
<!-- TestDensityEstimateUniform&#45;&gt;BivarGibbsDirichletwithSlice -->
<g id="edge20" class="edge">
<title>TestDensityEstimateUniform&#45;&gt;BivarGibbsDirichletwithSlice</title>
<path fill="none" stroke="black" d="M1675.08,-292.36C1588.11,-279.89 1455.66,-260.89 1367.31,-248.22"/>
<polygon fill="black" stroke="black" points="1367.69,-244.74 1357.3,-246.78 1366.7,-251.67 1367.69,-244.74"/>
</g>
<!-- TestDensityEstimateUniform&#45;&gt;calibind -->
<g id="edge34" class="edge">
<title>TestDensityEstimateUniform&#45;&gt;calibind</title>
<path fill="none" stroke="black" d="M1675,-294.25C1655.63,-292.04 1635.22,-289.84 1616.17,-288 1512.78,-278.03 1247.18,-289.11 1150.17,-252 1125.59,-242.6 1127.73,-225.44 1103.17,-216 916.71,-144.34 850.52,-221.7 655.17,-180 651.92,-179.31 648.6,-178.45 645.29,-177.5"/>
<polygon fill="black" stroke="black" points="646.09,-174.08 635.5,-174.4 643.98,-180.75 646.09,-174.08"/>
</g>
<!-- TestDensityEstimateUniform&#45;&gt;CreateSingleUniformPhaseData -->
<g id="edge37" class="edge">
<title>TestDensityEstimateUniform&#45;&gt;CreateSingleUniformPhaseData</title>
<path fill="none" stroke="black" d="M1763.17,-287.7C1763.17,-279.98 1763.17,-270.71 1763.17,-262.11"/>
<polygon fill="black" stroke="black" points="1766.67,-262.1 1763.17,-252.1 1759.67,-262.1 1766.67,-262.1"/>
</g>
<!-- FindCal -->
<g id="node18" class="node">
<title>FindCal</title>
<ellipse fill="none" stroke="black" cx="2034.17" cy="-162" rx="38.99" ry="18"/>
<text text-anchor="middle" x="2034.17" y="-158.3" font-family="Times,serif" font-size="14.00">FindCal</text>
</g>
<!-- TestDensityEstimateUniform&#45;&gt;FindCal -->
<g id="edge42" class="edge">
<title>TestDensityEstimateUniform&#45;&gt;FindCal</title>
<path fill="none" stroke="black" d="M1851.4,-301.73C1985.24,-295.86 2226.87,-281.29 2253.17,-252 2342.85,-152.09 2272.89,-226.64 2092.17,-180 2086.77,-178.61 2081.11,-177.06 2075.54,-175.48"/>
<polygon fill="black" stroke="black" points="2076.25,-172.04 2065.67,-172.64 2074.31,-178.77 2076.25,-172.04"/>
</g>
<!-- TestDensityEstimateUniform&#45;&gt;FindCalCurve -->
<g id="edge49" class="edge">
<title>TestDensityEstimateUniform&#45;&gt;FindCalCurve</title>
<path fill="none" stroke="black" d="M1675.01,-294.18C1655.64,-291.98 1635.22,-289.79 1616.17,-288 1394.79,-267.22 1338.79,-270.01 1117.17,-252 1077.03,-248.74 1032.11,-244.69 996.25,-241.36"/>
<polygon fill="black" stroke="black" points="996.19,-237.84 985.91,-240.4 995.54,-244.81 996.19,-237.84"/>
</g>
<!-- NealFindPred -->
<g id="node26" class="node">
<title>NealFindPred</title>
<ellipse fill="none" stroke="black" cx="1917.17" cy="-162" rx="59.59" ry="18"/>
<text text-anchor="middle" x="1917.17" y="-158.3" font-family="Times,serif" font-size="14.00">NealFindPred</text>
</g>
<!-- TestDensityEstimateUniform&#45;&gt;NealFindPred -->
<g id="edge23" class="edge">
<title>TestDensityEstimateUniform&#45;&gt;NealFindPred</title>
<path fill="none" stroke="black" d="M1851.27,-301.04C1977.66,-294.44 2197.97,-279.15 2222.17,-252 2340.56,-119.15 2440.82,-270.49 1986.17,-180 1981.15,-179 1975.95,-177.88 1970.76,-176.7"/>
<polygon fill="black" stroke="black" points="1971.37,-173.25 1960.84,-174.39 1969.78,-180.07 1971.37,-173.25"/>
</g>
<!-- TestDensityEstimateUniform&#45;&gt;WalkerBivarDirichlet -->
<g id="edge6" class="edge">
<title>TestDensityEstimateUniform&#45;&gt;WalkerBivarDirichlet</title>
<path fill="none" stroke="black" d="M1698.19,-287.97C1655.46,-276.76 1599.89,-262.19 1557.84,-251.17"/>
<polygon fill="black" stroke="black" points="1558.57,-247.74 1548.01,-248.59 1556.79,-254.51 1558.57,-247.74"/>
</g>
<!-- WalkerFindpred -->
<g id="node37" class="node">
<title>WalkerFindpred</title>
<ellipse fill="#ccffff" stroke="black" cx="2011.17" cy="-234" rx="67.69" ry="18"/>
<text text-anchor="middle" x="2011.17" y="-230.3" font-family="Times,serif" font-size="14.00">WalkerFindpred</text>
</g>
<!-- TestDensityEstimateUniform&#45;&gt;WalkerFindpred -->
<g id="edge75" class="edge">
<title>TestDensityEstimateUniform&#45;&gt;WalkerFindpred</title>
<path fill="none" stroke="black" d="M1823.52,-287.97C1864.23,-276.47 1917.49,-261.44 1956.87,-250.33"/>
<polygon fill="black" stroke="black" points="1957.89,-253.67 1966.57,-247.59 1955.99,-246.94 1957.89,-253.67"/>
</g>
<!-- as_row_temp -->
<g id="node40" class="node">
<title>as_row_temp</title>
<ellipse fill="none" stroke="black" cx="2155.17" cy="-234" rx="58.49" ry="18"/>
<text text-anchor="middle" x="2155.17" y="-230.3" font-family="Times,serif" font-size="14.00">as_row_temp</text>
</g>
<!-- TestDensityEstimateUniform&#45;&gt;as_row_temp -->
<g id="edge10" class="edge">
<title>TestDensityEstimateUniform&#45;&gt;as_row_temp</title>
<path fill="none" stroke="black" d="M1851.48,-292.72C1917.06,-283.08 2008.55,-268.56 2088.17,-252 2092.84,-251.03 2097.68,-249.95 2102.52,-248.82"/>
<polygon fill="black" stroke="black" points="2103.5,-252.18 2112.4,-246.44 2101.86,-245.37 2103.5,-252.18"/>
</g>
<!-- TestDensity_others -->
<g id="node6" class="node">
<title>TestDensity_others</title>
<polygon fill="#ffff00" stroke="black" points="1606.67,-324 1485.67,-324 1485.67,-288 1606.67,-288 1606.67,-324"/>
<text text-anchor="middle" x="1546.17" y="-302.3" font-family="Times,serif" font-size="14.00">TestDensity_others</text>
</g>
<!-- TestDensity_others&#45;&gt;BivarGibbsDirichletwithSlice -->
<g id="edge21" class="edge">
<title>TestDensity_others&#45;&gt;BivarGibbsDirichletwithSlice</title>
<path fill="none" stroke="black" d="M1485.35,-289.29C1442.7,-278.27 1385.68,-263.55 1341.8,-252.21"/>
<polygon fill="black" stroke="black" points="1342.64,-248.81 1332.08,-249.7 1340.88,-255.59 1342.64,-248.81"/>
</g>
<!-- TestDensity_others&#45;&gt;calibind -->
<g id="edge35" class="edge">
<title>TestDensity_others&#45;&gt;calibind</title>
<path fill="none" stroke="black" d="M1485.46,-300.91C1383.72,-293.48 1183.4,-276.27 1117.17,-252 1089.74,-241.95 1089.77,-225.57 1062.17,-216 890.6,-156.49 832.61,-218.62 655.17,-180 651.97,-179.3 648.7,-178.45 645.43,-177.51"/>
<polygon fill="black" stroke="black" points="646.35,-174.13 635.76,-174.45 644.24,-180.8 646.35,-174.13"/>
</g>
<!-- TestDensity_others&#45;&gt;FindCal -->
<g id="edge43" class="edge">
<title>TestDensity_others&#45;&gt;FindCal</title>
<path fill="none" stroke="black" d="M1606.94,-296.27C1705.44,-282.05 1889.7,-255.16 1896.17,-252 1917.07,-241.79 1915.27,-229.57 1934.17,-216 1953.92,-201.82 1977.94,-188.96 1997.49,-179.46"/>
<polygon fill="black" stroke="black" points="1999.17,-182.54 2006.69,-175.08 1996.16,-176.22 1999.17,-182.54"/>
</g>
<!-- TestDensity_others&#45;&gt;FindCalCurve -->
<g id="edge50" class="edge">
<title>TestDensity_others&#45;&gt;FindCalCurve</title>
<path fill="none" stroke="black" d="M1485.6,-298.13C1369.21,-284.92 1115.2,-256.11 994.88,-242.46"/>
<polygon fill="black" stroke="black" points="995.04,-238.95 984.71,-241.3 994.25,-245.91 995.04,-238.95"/>
</g>
<!-- TestDensity_others&#45;&gt;NealFindPred -->
<g id="edge24" class="edge">
<title>TestDensity_others&#45;&gt;NealFindPred</title>
<path fill="none" stroke="black" d="M1561.39,-287.73C1583.21,-263.15 1621.69,-220.53 1630.17,-216 1714.84,-170.74 1749.01,-198.76 1843.17,-180 1849.28,-178.78 1855.65,-177.44 1861.98,-176.05"/>
<polygon fill="black" stroke="black" points="1862.86,-179.44 1871.86,-173.85 1861.34,-172.61 1862.86,-179.44"/>
</g>
<!-- TestDensity_others&#45;&gt;WalkerBivarDirichlet -->
<g id="edge5" class="edge">
<title>TestDensity_others&#45;&gt;WalkerBivarDirichlet</title>
<path fill="none" stroke="black" d="M1533.81,-287.7C1527.93,-279.47 1520.8,-269.48 1514.32,-260.42"/>
<polygon fill="black" stroke="black" points="1517.04,-258.21 1508.38,-252.1 1511.35,-262.28 1517.04,-258.21"/>
</g>
<!-- TestDensity_others&#45;&gt;WalkerFindpred -->
<g id="edge76" class="edge">
<title>TestDensity_others&#45;&gt;WalkerFindpred</title>
<path fill="none" stroke="black" d="M1606.9,-296.34C1625.88,-293.65 1646.89,-290.68 1666.17,-288 1783.02,-271.73 1812.89,-271.99 1929.17,-252 1936.16,-250.8 1943.47,-249.44 1950.72,-248.02"/>
<polygon fill="black" stroke="black" points="1951.41,-251.45 1960.53,-246.06 1950.04,-244.59 1951.41,-251.45"/>
</g>
<!-- TestDensity_others&#45;&gt;as_row_temp -->
<g id="edge11" class="edge">
<title>TestDensity_others&#45;&gt;as_row_temp</title>
<path fill="none" stroke="black" d="M1606.82,-295.74C1625.8,-293.02 1646.83,-290.19 1666.17,-288 1853.2,-266.79 1902.54,-283.25 2088.17,-252 2093.21,-251.15 2098.44,-250.11 2103.65,-248.97"/>
<polygon fill="black" stroke="black" points="2104.62,-252.34 2113.57,-246.67 2103.04,-245.52 2104.62,-252.34"/>
</g>
<!-- RealDatasetExamples -->
<g id="node7" class="node">
<title>RealDatasetExamples</title>
<polygon fill="#ffff00" stroke="black" points="1231.17,-324 1095.17,-324 1095.17,-288 1231.17,-288 1231.17,-324"/>
<text text-anchor="middle" x="1163.17" y="-302.3" font-family="Times,serif" font-size="14.00">RealDatasetExamples</text>
</g>
<!-- RealDatasetExamples&#45;&gt;calibind -->
<g id="edge31" class="edge">
<title>RealDatasetExamples&#45;&gt;calibind</title>
<path fill="none" stroke="black" d="M1136.27,-287.94C1096.38,-262.71 1025.54,-218.15 1019.17,-216 865.17,-163.92 813.83,-215.39 655.17,-180 651.97,-179.29 648.7,-178.43 645.44,-177.47"/>
<polygon fill="black" stroke="black" points="646.36,-174.09 635.77,-174.4 644.24,-180.77 646.36,-174.09"/>
</g>
<!-- RealDatasetExamples&#45;&gt;FindCalCurve -->
<g id="edge46" class="edge">
<title>RealDatasetExamples&#45;&gt;FindCalCurve</title>
<path fill="none" stroke="black" d="M1106.22,-287.97C1067.6,-276.41 1017,-261.28 979.79,-250.14"/>
<polygon fill="black" stroke="black" points="980.74,-246.77 970.15,-247.26 978.73,-253.48 980.74,-246.77"/>
</g>
<!-- RealDatasetExamples&#45;&gt;WalkerBivarDirichlet -->
<g id="edge2" class="edge">
<title>RealDatasetExamples&#45;&gt;WalkerBivarDirichlet</title>
<path fill="none" stroke="black" d="M1231.36,-290.67C1288.62,-278.63 1370.05,-261.51 1427.46,-249.44"/>
<polygon fill="black" stroke="black" points="1428.46,-252.81 1437.53,-247.33 1427.02,-245.96 1428.46,-252.81"/>
</g>
<!-- as_row -->
<g id="node10" class="node">
<title>as_row</title>
<ellipse fill="none" stroke="black" cx="757.17" cy="-18" rx="36.29" ry="18"/>
<text text-anchor="middle" x="757.17" y="-14.3" font-family="Times,serif" font-size="14.00">as_row</text>
</g>
<!-- NealPostProcessing&#45;&gt;as_row -->
<g id="edge15" class="edge">
<title>NealPostProcessing&#45;&gt;as_row</title>
<path fill="none" stroke="black" d="M122.35,-216.41C164.39,-182.85 265.61,-107.15 364.17,-72 484.01,-29.27 635.63,-20.61 710.7,-19.1"/>
<polygon fill="black" stroke="black" points="710.83,-22.6 720.77,-18.93 710.71,-15.6 710.83,-22.6"/>
</g>
<!-- NealPostProcessing&#45;&gt;NealFindPred -->
<g id="edge22" class="edge">
<title>NealPostProcessing&#45;&gt;NealFindPred</title>
<path fill="none" stroke="black" d="M158.13,-220.96C169.35,-218.96 181.1,-217.16 192.17,-216 907.53,-140.99 1093.78,-244.58 1810.17,-180 1825.69,-178.6 1842.37,-176.33 1857.84,-173.89"/>
<polygon fill="black" stroke="black" points="1858.49,-177.33 1867.8,-172.27 1857.37,-170.42 1858.49,-177.33"/>
</g>
<!-- WalkerPostProcessing&#45;&gt;as_row -->
<g id="edge14" class="edge">
<title>WalkerPostProcessing&#45;&gt;as_row</title>
<path fill="none" stroke="black" d="M517.65,-75.83C575.08,-62.21 663.48,-41.23 715.3,-28.93"/>
<polygon fill="black" stroke="black" points="716.23,-32.31 725.16,-26.6 714.62,-25.5 716.23,-32.31"/>
</g>
<!-- BivarUpdatec -->
<g id="node12" class="node">
<title>BivarUpdatec</title>
<ellipse fill="none" stroke="black" cx="1896.17" cy="-90" rx="59.59" ry="18"/>
<text text-anchor="middle" x="1896.17" y="-86.3" font-family="Times,serif" font-size="14.00">BivarUpdatec</text>
</g>
<!-- BivarGibbsDirichletwithSlice&#45;&gt;BivarUpdatec -->
<g id="edge25" class="edge">
<title>BivarGibbsDirichletwithSlice&#45;&gt;BivarUpdatec</title>
<path fill="none" stroke="black" d="M1357.13,-221.29C1371.46,-219.4 1386.24,-217.56 1400.17,-216 1491.06,-205.83 1727.61,-219.38 1810.17,-180 1818.17,-176.18 1851.63,-140.26 1874.38,-115.24"/>
<polygon fill="black" stroke="black" points="1877.22,-117.31 1881.34,-107.55 1872.03,-112.61 1877.22,-117.31"/>
</g>
<!-- BivarUpdatephitau -->
<g id="node13" class="node">
<title>BivarUpdatephitau</title>
<ellipse fill="none" stroke="black" cx="1423.17" cy="-90" rx="77.19" ry="18"/>
<text text-anchor="middle" x="1423.17" y="-86.3" font-family="Times,serif" font-size="14.00">BivarUpdatephitau</text>
</g>
<!-- BivarGibbsDirichletwithSlice&#45;&gt;BivarUpdatephitau -->
<g id="edge26" class="edge">
<title>BivarGibbsDirichletwithSlice&#45;&gt;BivarUpdatephitau</title>
<path fill="none" stroke="black" d="M1190.08,-221.76C1079.35,-207.04 899.57,-182.77 897.17,-180 886.67,-167.93 886.32,-155.77 897.17,-144 930.41,-107.93 1288.58,-114.77 1337.17,-108 1343.95,-107.05 1351.01,-105.92 1358.04,-104.68"/>
<polygon fill="black" stroke="black" points="1359.06,-108.05 1368.27,-102.82 1357.8,-101.17 1359.06,-108.05"/>
</g>
<!-- BivarGibbsDirichletwithSlice&#45;&gt;calibind -->
<g id="edge30" class="edge">
<title>BivarGibbsDirichletwithSlice&#45;&gt;calibind</title>
<path fill="none" stroke="black" d="M1192.03,-221.42C1176.47,-219.45 1160.34,-217.55 1145.17,-216 927.93,-193.83 868.88,-224.85 655.17,-180 651.92,-179.32 648.6,-178.47 645.29,-177.52"/>
<polygon fill="black" stroke="black" points="646.08,-174.1 635.49,-174.44 643.97,-180.78 646.08,-174.1"/>
</g>
<!-- BivarGibbsDirichletwithSlice&#45;&gt;FindCal -->
<g id="edge40" class="edge">
<title>BivarGibbsDirichletwithSlice&#45;&gt;FindCal</title>
<path fill="none" stroke="black" d="M1356.09,-221.11C1370.74,-219.21 1385.89,-217.41 1400.17,-216 1659.84,-190.4 1730.48,-232.06 1986.17,-180 1989.42,-179.34 1992.74,-178.51 1996.05,-177.57"/>
<polygon fill="black" stroke="black" points="1997.36,-180.83 2005.86,-174.49 1995.27,-174.15 1997.36,-180.83"/>
</g>
<!-- SliceSample -->
<g id="node31" class="node">
<title>SliceSample</title>
<ellipse fill="none" stroke="black" cx="1433.17" cy="-162" rx="55.49" ry="18"/>
<text text-anchor="middle" x="1433.17" y="-158.3" font-family="Times,serif" font-size="14.00">SliceSample</text>
</g>
<!-- BivarGibbsDirichletwithSlice&#45;&gt;SliceSample -->
<g id="edge67" class="edge">
<title>BivarGibbsDirichletwithSlice&#45;&gt;SliceSample</title>
<path fill="none" stroke="black" d="M1311.81,-216.76C1335.98,-206.06 1367.66,-192.02 1392.59,-180.98"/>
<polygon fill="black" stroke="black" points="1394.06,-184.15 1401.79,-176.9 1391.23,-177.75 1394.06,-184.15"/>
</g>
<!-- thetaloglikfast -->
<g id="node32" class="node">
<title>thetaloglikfast</title>
<ellipse fill="none" stroke="black" cx="1163.17" cy="-162" rx="61.19" ry="18"/>
<text text-anchor="middle" x="1163.17" y="-158.3" font-family="Times,serif" font-size="14.00">thetaloglikfast</text>
</g>
<!-- BivarGibbsDirichletwithSlice&#45;&gt;thetaloglikfast -->
<g id="edge69" class="edge">
<title>BivarGibbsDirichletwithSlice&#45;&gt;thetaloglikfast</title>
<path fill="none" stroke="black" d="M1248.62,-216.41C1233.12,-206.72 1213.41,-194.4 1196.83,-184.04"/>
<polygon fill="black" stroke="black" points="1198.32,-180.84 1187.98,-178.51 1194.61,-186.78 1198.32,-180.84"/>
</g>
<!-- Updatealphagammapr -->
<g id="node33" class="node">
<title>Updatealphagammapr</title>
<ellipse fill="none" stroke="black" cx="995.17" cy="-162" rx="89.08" ry="18"/>
<text text-anchor="middle" x="995.17" y="-158.3" font-family="Times,serif" font-size="14.00">Updatealphagammapr</text>
</g>
<!-- BivarGibbsDirichletwithSlice&#45;&gt;Updatealphagammapr -->
<g id="edge71" class="edge">
<title>BivarGibbsDirichletwithSlice&#45;&gt;Updatealphagammapr</title>
<path fill="none" stroke="black" d="M1216.81,-218.41C1170.57,-206.85 1106.08,-190.73 1058.58,-178.85"/>
<polygon fill="black" stroke="black" points="1059.26,-175.42 1048.71,-176.39 1057.56,-182.21 1059.26,-175.42"/>
</g>
<!-- Updatealphalognormpr -->
<g id="node34" class="node">
<title>Updatealphalognormpr</title>
<ellipse fill="none" stroke="black" cx="757.17" cy="-162" rx="92.88" ry="18"/>
<text text-anchor="middle" x="757.17" y="-158.3" font-family="Times,serif" font-size="14.00">Updatealphalognormpr</text>
</g>
<!-- BivarGibbsDirichletwithSlice&#45;&gt;Updatealphalognormpr -->
<g id="edge72" class="edge">
<title>BivarGibbsDirichletwithSlice&#45;&gt;Updatealphalognormpr</title>
<path fill="none" stroke="black" d="M1189.86,-221.81C1174.96,-219.87 1159.61,-217.87 1145.17,-216 1020.3,-199.84 988.8,-197.88 864.17,-180 854.91,-178.67 845.21,-177.22 835.59,-175.74"/>
<polygon fill="black" stroke="black" points="836.04,-172.27 825.62,-174.19 834.96,-179.18 836.04,-172.27"/>
</g>
<!-- Updatemuphi -->
<g id="node35" class="node">
<title>Updatemuphi</title>
<ellipse fill="none" stroke="black" cx="1301.17" cy="-162" rx="59.29" ry="18"/>
<text text-anchor="middle" x="1301.17" y="-158.3" font-family="Times,serif" font-size="14.00">Updatemuphi</text>
</g>
<!-- BivarGibbsDirichletwithSlice&#45;&gt;Updatemuphi -->
<g id="edge73" class="edge">
<title>BivarGibbsDirichletwithSlice&#45;&gt;Updatemuphi</title>
<path fill="none" stroke="black" d="M1281.59,-215.7C1284.52,-207.81 1288.05,-198.3 1291.31,-189.55"/>
<polygon fill="black" stroke="black" points="1294.61,-190.7 1294.81,-180.1 1288.05,-188.26 1294.61,-190.7"/>
</g>
<!-- BivarUpdatec&#45;&gt;as_row -->
<g id="edge12" class="edge">
<title>BivarUpdatec&#45;&gt;as_row</title>
<path fill="none" stroke="black" d="M1852.58,-77.65C1842.64,-75.43 1832.09,-73.38 1822.17,-72 1431.34,-17.81 953.08,-17.12 803.87,-18.4"/>
<polygon fill="black" stroke="black" points="803.67,-14.9 793.7,-18.5 803.74,-21.9 803.67,-14.9"/>
</g>
<!-- Logmargnormgamma -->
<g id="node24" class="node">
<title>Logmargnormgamma</title>
<ellipse fill="none" stroke="black" cx="1966.17" cy="-18" rx="89.08" ry="18"/>
<text text-anchor="middle" x="1966.17" y="-14.3" font-family="Times,serif" font-size="14.00">Logmargnormgamma</text>
</g>
<!-- BivarUpdatec&#45;&gt;Logmargnormgamma -->
<g id="edge58" class="edge">
<title>BivarUpdatec&#45;&gt;Logmargnormgamma</title>
<path fill="none" stroke="black" d="M1912.76,-72.41C1921.52,-63.65 1932.43,-52.73 1942.11,-43.06"/>
<polygon fill="black" stroke="black" points="1944.61,-45.5 1949.21,-35.96 1939.66,-40.55 1944.61,-45.5"/>
</g>
<!-- CreateSingleUniformPhaseData&#45;&gt;FindCal -->
<g id="edge41" class="edge">
<title>CreateSingleUniformPhaseData&#45;&gt;FindCal</title>
<path fill="none" stroke="black" d="M1831,-218.86C1875.44,-209.11 1934.64,-195.2 1986.17,-180 1989.12,-179.13 1992.17,-178.18 1995.22,-177.19"/>
<polygon fill="black" stroke="black" points="1996.52,-180.44 2004.88,-173.93 1994.29,-173.81 1996.52,-180.44"/>
</g>
<!-- DPWalkerUpdate -->
<g id="node17" class="node">
<title>DPWalkerUpdate</title>
<ellipse fill="none" stroke="black" cx="1579.17" cy="-162" rx="72.59" ry="18"/>
<text text-anchor="middle" x="1579.17" y="-158.3" font-family="Times,serif" font-size="14.00">DPWalkerUpdate</text>
</g>
<!-- DPWalkerUpdate&#45;&gt;BivarUpdatephitau -->
<g id="edge27" class="edge">
<title>DPWalkerUpdate&#45;&gt;BivarUpdatephitau</title>
<path fill="none" stroke="black" d="M1545.7,-145.98C1522.52,-135.58 1491.45,-121.64 1466.39,-110.4"/>
<polygon fill="black" stroke="black" points="1467.67,-107.13 1457.12,-106.23 1464.81,-113.52 1467.67,-107.13"/>
</g>
<!-- sampnewphi -->
<g id="node30" class="node">
<title>sampnewphi</title>
<ellipse fill="none" stroke="black" cx="1574.17" cy="-90" rx="55.79" ry="18"/>
<text text-anchor="middle" x="1574.17" y="-86.3" font-family="Times,serif" font-size="14.00">sampnewphi</text>
</g>
<!-- DPWalkerUpdate&#45;&gt;sampnewphi -->
<g id="edge66" class="edge">
<title>DPWalkerUpdate&#45;&gt;sampnewphi</title>
<path fill="none" stroke="black" d="M1577.93,-143.7C1577.38,-135.98 1576.72,-126.71 1576.1,-118.11"/>
<polygon fill="black" stroke="black" points="1579.59,-117.83 1575.39,-108.1 1572.61,-118.33 1579.59,-117.83"/>
</g>
<!-- FindInterval -->
<g id="node21" class="node">
<title>FindInterval</title>
<ellipse fill="none" stroke="black" cx="1274.17" cy="-90" rx="53.89" ry="18"/>
<text text-anchor="middle" x="1274.17" y="-86.3" font-family="Times,serif" font-size="14.00">FindInterval</text>
</g>
<!-- LogLikalpha -->
<g id="node23" class="node">
<title>LogLikalpha</title>
<ellipse fill="none" stroke="black" cx="757.17" cy="-90" rx="55.79" ry="18"/>
<text text-anchor="middle" x="757.17" y="-86.3" font-family="Times,serif" font-size="14.00">LogLikalpha</text>
</g>
<!-- LogLikalpha&#45;&gt;as_row -->
<g id="edge13" class="edge">
<title>LogLikalpha&#45;&gt;as_row</title>
<path fill="none" stroke="black" d="M757.17,-71.7C757.17,-63.98 757.17,-54.71 757.17,-46.11"/>
<polygon fill="black" stroke="black" points="760.67,-46.1 757.17,-36.1 753.67,-46.1 760.67,-46.1"/>
</g>
<!-- MixtureDens -->
<g id="node25" class="node">
<title>MixtureDens</title>
<ellipse fill="none" stroke="black" cx="2174.17" cy="-90" rx="57.69" ry="18"/>
<text text-anchor="middle" x="2174.17" y="-86.3" font-family="Times,serif" font-size="14.00">MixtureDens</text>
</g>
<!-- NealFindPred&#45;&gt;as_row -->
<g id="edge9" class="edge">
<title>NealFindPred&#45;&gt;as_row</title>
<path fill="none" stroke="black" d="M1888.15,-146.1C1869.97,-136.24 1846.43,-122.5 1827.17,-108 1808.58,-94.01 1810.55,-81.16 1789.17,-72 1697.93,-32.9 993.14,-21.79 803.84,-19.5"/>
<polygon fill="black" stroke="black" points="803.7,-16 793.66,-19.38 803.62,-23 803.7,-16"/>
</g>
<!-- NealFindPred&#45;&gt;MixtureDens -->
<g id="edge59" class="edge">
<title>NealFindPred&#45;&gt;MixtureDens</title>
<path fill="none" stroke="black" d="M1959.89,-149.36C2004.53,-137.2 2074.59,-118.12 2122.35,-105.11"/>
<polygon fill="black" stroke="black" points="2123.46,-108.44 2132.19,-102.43 2121.62,-101.68 2123.46,-108.44"/>
</g>
<!-- PredNewDens -->
<g id="node28" class="node">
<title>PredNewDens</title>
<ellipse fill="none" stroke="black" cx="2036.17" cy="-90" rx="61.99" ry="18"/>
<text text-anchor="middle" x="2036.17" y="-86.3" font-family="Times,serif" font-size="14.00">PredNewDens</text>
</g>
<!-- NealFindPred&#45;&gt;PredNewDens -->
<g id="edge63" class="edge">
<title>NealFindPred&#45;&gt;PredNewDens</title>
<path fill="none" stroke="black" d="M1943.28,-145.64C1960.33,-135.61 1982.79,-122.4 2001.35,-111.48"/>
<polygon fill="black" stroke="black" points="2003.27,-114.41 2010.11,-106.33 1999.72,-108.38 2003.27,-114.41"/>
</g>
<!-- PredNewDens&#45;&gt;Logmargnormgamma -->
<g id="edge57" class="edge">
<title>PredNewDens&#45;&gt;Logmargnormgamma</title>
<path fill="none" stroke="black" d="M2019.58,-72.41C2010.81,-63.65 1999.9,-52.73 1990.22,-43.06"/>
<polygon fill="black" stroke="black" points="1992.67,-40.55 1983.12,-35.96 1987.72,-45.5 1992.67,-40.55"/>
</g>
<!-- SamplefromInt -->
<g id="node29" class="node">
<title>SamplefromInt</title>
<ellipse fill="none" stroke="black" cx="1137.17" cy="-90" rx="64.99" ry="18"/>
<text text-anchor="middle" x="1137.17" y="-86.3" font-family="Times,serif" font-size="14.00">SamplefromInt</text>
</g>
<!-- SliceSample&#45;&gt;FindInterval -->
<g id="edge55" class="edge">
<title>SliceSample&#45;&gt;FindInterval</title>
<path fill="none" stroke="black" d="M1401.75,-147.17C1376.82,-136.19 1341.77,-120.76 1314.72,-108.85"/>
<polygon fill="black" stroke="black" points="1316.08,-105.63 1305.51,-104.8 1313.26,-112.03 1316.08,-105.63"/>
</g>
<!-- SliceSample&#45;&gt;SamplefromInt -->
<g id="edge65" class="edge">
<title>SliceSample&#45;&gt;SamplefromInt</title>
<path fill="none" stroke="black" d="M1392.25,-149.9C1384.59,-147.89 1376.65,-145.84 1369.17,-144 1299.24,-126.75 1281.37,-124.06 1211.17,-108 1206.16,-106.85 1200.95,-105.66 1195.74,-104.47"/>
<polygon fill="black" stroke="black" points="1196.26,-100.99 1185.73,-102.17 1194.69,-107.82 1196.26,-100.99"/>
</g>
<!-- Updatealphalognormpr&#45;&gt;LogLikalpha -->
<g id="edge56" class="edge">
<title>Updatealphalognormpr&#45;&gt;LogLikalpha</title>
<path fill="none" stroke="black" d="M757.17,-143.7C757.17,-135.98 757.17,-126.71 757.17,-118.11"/>
<polygon fill="black" stroke="black" points="760.67,-118.1 757.17,-108.1 753.67,-118.1 760.67,-118.1"/>
</g>
<!-- WalkerBivarDirichlet&#45;&gt;DPWalkerUpdate -->
<g id="edge39" class="edge">
<title>WalkerBivarDirichlet&#45;&gt;DPWalkerUpdate</title>
<path fill="none" stroke="black" d="M1515.84,-216.41C1526.59,-207.34 1540.07,-195.97 1551.83,-186.06"/>
<polygon fill="black" stroke="black" points="1554.25,-188.59 1559.64,-179.47 1549.74,-183.24 1554.25,-188.59"/>
</g>
<!-- WalkerBivarDirichlet&#45;&gt;SliceSample -->
<g id="edge68" class="edge">
<title>WalkerBivarDirichlet&#45;&gt;SliceSample</title>
<path fill="none" stroke="black" d="M1480.92,-216.05C1473.18,-207.46 1463.64,-196.86 1455.12,-187.4"/>
<polygon fill="black" stroke="black" points="1457.57,-184.88 1448.28,-179.79 1452.37,-189.56 1457.57,-184.88"/>
</g>
<!-- WalkerBivarDirichlet&#45;&gt;thetaloglikfast -->
<g id="edge70" class="edge">
<title>WalkerBivarDirichlet&#45;&gt;thetaloglikfast</title>
<path fill="none" stroke="black" d="M1434.38,-221.26C1380.99,-210.95 1301.83,-195.25 1233.17,-180 1228.26,-178.91 1223.16,-177.74 1218.06,-176.55"/>
<polygon fill="black" stroke="black" points="1218.83,-173.13 1208.29,-174.24 1217.22,-179.95 1218.83,-173.13"/>
</g>
<!-- WalkerBivarDirichlet&#45;&gt;Updatemuphi -->
<g id="edge74" class="edge">
<title>WalkerBivarDirichlet&#45;&gt;Updatemuphi</title>
<path fill="none" stroke="black" d="M1454.81,-218.15C1423.4,-206.88 1380.2,-191.37 1347.61,-179.67"/>
<polygon fill="black" stroke="black" points="1348.45,-176.26 1337.86,-176.17 1346.09,-182.84 1348.45,-176.26"/>
</g>
<!-- WalkerUpdatec -->
<g id="node39" class="node">
<title>WalkerUpdatec</title>
<ellipse fill="none" stroke="black" cx="1735.17" cy="-162" rx="65.79" ry="18"/>
<text text-anchor="middle" x="1735.17" y="-158.3" font-family="Times,serif" font-size="14.00">WalkerUpdatec</text>
</g>
<!-- WalkerBivarDirichlet&#45;&gt;WalkerUpdatec -->
<g id="edge77" class="edge">
<title>WalkerBivarDirichlet&#45;&gt;WalkerUpdatec</title>
<path fill="none" stroke="black" d="M1544.24,-218.92C1584.25,-207.2 1641.12,-190.55 1682.38,-178.46"/>
<polygon fill="black" stroke="black" points="1683.37,-181.82 1691.98,-175.65 1681.4,-175.1 1683.37,-181.82"/>
</g>
<!-- WalkerLogLikc -->
<g id="node38" class="node">
<title>WalkerLogLikc</title>
<ellipse fill="none" stroke="black" cx="1714.17" cy="-90" rx="66.09" ry="18"/>
<text text-anchor="middle" x="1714.17" y="-86.3" font-family="Times,serif" font-size="14.00">WalkerLogLikc</text>
</g>
<!-- WalkerUpdatec&#45;&gt;WalkerLogLikc -->
<g id="edge78" class="edge">
<title>WalkerUpdatec&#45;&gt;WalkerLogLikc</title>
<path fill="none" stroke="black" d="M1729.98,-143.7C1727.64,-135.9 1724.82,-126.51 1722.22,-117.83"/>
<polygon fill="black" stroke="black" points="1725.52,-116.68 1719.3,-108.1 1718.82,-118.69 1725.52,-116.68"/>
</g>
<!-- WalkerFindPred -->
<g id="node41" class="node">
<title>WalkerFindPred</title>
<ellipse fill="none" stroke="black" cx="2169.17" cy="-162" rx="68.49" ry="18"/>
<text text-anchor="middle" x="2169.17" y="-158.3" font-family="Times,serif" font-size="14.00">WalkerFindPred</text>
</g>
<!-- WalkerFindPred&#45;&gt;MixtureDens -->
<g id="edge60" class="edge">
<title>WalkerFindPred&#45;&gt;MixtureDens</title>
<path fill="none" stroke="black" d="M2170.4,-143.7C2170.95,-135.98 2171.62,-126.71 2172.23,-118.11"/>
<polygon fill="black" stroke="black" points="2175.72,-118.33 2172.95,-108.1 2168.74,-117.83 2175.72,-118.33"/>
</g>
<!-- WalkerFindPred&#45;&gt;PredNewDens -->
<g id="edge64" class="edge">
<title>WalkerFindPred&#45;&gt;PredNewDens</title>
<path fill="none" stroke="black" d="M2139.98,-145.64C2120.53,-135.4 2094.78,-121.85 2073.8,-110.81"/>
<polygon fill="black" stroke="black" points="2075.31,-107.65 2064.83,-106.09 2072.05,-113.84 2075.31,-107.65"/>
</g>
</g>
</svg>
