<?xml version="1.0" encoding="UTF-8" standalone="no"?>
<!DOCTYPE svg PUBLIC "-//W3C//DTD SVG 1.1//EN"
 "http://www.w3.org/Graphics/SVG/1.1/DTD/svg11.dtd">
<!-- Generated by graphviz version 6.0.1 (20220911.1526)
 -->
<!-- Title: xyz Pages: 1 -->
<svg width="1475pt" height="260pt"
 viewBox="0.00 0.00 1475.34 260.00" xmlns="http://www.w3.org/2000/svg" xmlns:xlink="http://www.w3.org/1999/xlink">
<g id="graph0" class="graph" transform="scale(1 1) rotate(0) translate(4 256)">
<title>xyz</title>
<polygon fill="white" stroke="none" points="-4,4 -4,-256 1471.34,-256 1471.34,4 -4,4"/>
<!-- as_row -->
<g id="node1" class="node">
<title>as_row</title>
<ellipse fill="none" stroke="black" cx="422.04" cy="-18" rx="36.29" ry="18"/>
<text text-anchor="middle" x="422.04" y="-14.3" font-family="Times,serif" font-size="14.00">as_row</text>
</g>
<!-- BivarGibbsDirichletwithSlice -->
<g id="node2" class="node">
<title>BivarGibbsDirichletwithSlice</title>
<ellipse fill="none" stroke="black" cx="673.04" cy="-234" rx="115.88" ry="18"/>
<text text-anchor="middle" x="673.04" y="-230.3" font-family="Times,serif" font-size="14.00">BivarGibbsDirichletwithSlice</text>
</g>
<!-- BivarUpdatec -->
<g id="node3" class="node">
<title>BivarUpdatec</title>
<ellipse fill="none" stroke="black" cx="256.04" cy="-162" rx="59.59" ry="18"/>
<text text-anchor="middle" x="256.04" y="-158.3" font-family="Times,serif" font-size="14.00">BivarUpdatec</text>
</g>
<!-- BivarGibbsDirichletwithSlice&#45;&gt;BivarUpdatec -->
<g id="edge4" class="edge">
<title>BivarGibbsDirichletwithSlice&#45;&gt;BivarUpdatec</title>
<path fill="none" stroke="black" d="M586.5,-222.03C515.86,-212.55 413.6,-197.62 325.04,-180 320.03,-179 314.83,-177.88 309.64,-176.71"/>
<polygon fill="black" stroke="black" points="310.24,-173.25 299.71,-174.39 308.65,-180.07 310.24,-173.25"/>
</g>
<!-- BivarUpdatephitau -->
<g id="node4" class="node">
<title>BivarUpdatephitau</title>
<ellipse fill="none" stroke="black" cx="1063.04" cy="-90" rx="77.19" ry="18"/>
<text text-anchor="middle" x="1063.04" y="-86.3" font-family="Times,serif" font-size="14.00">BivarUpdatephitau</text>
</g>
<!-- BivarGibbsDirichletwithSlice&#45;&gt;BivarUpdatephitau -->
<g id="edge5" class="edge">
<title>BivarGibbsDirichletwithSlice&#45;&gt;BivarUpdatephitau</title>
<path fill="none" stroke="black" d="M743.79,-219.66C777.2,-211.41 816.74,-198.73 849.04,-180 869.17,-168.33 866.92,-155.67 887.04,-144 919.83,-124.99 960.08,-112.21 993.81,-103.97"/>
<polygon fill="black" stroke="black" points="994.67,-107.37 1003.59,-101.66 993.06,-100.55 994.67,-107.37"/>
</g>
<!-- calibind -->
<g id="node5" class="node">
<title>calibind</title>
<ellipse fill="none" stroke="black" cx="577.04" cy="-162" rx="38.99" ry="18"/>
<text text-anchor="middle" x="577.04" y="-158.3" font-family="Times,serif" font-size="14.00">calibind</text>
</g>
<!-- BivarGibbsDirichletwithSlice&#45;&gt;calibind -->
<g id="edge7" class="edge">
<title>BivarGibbsDirichletwithSlice&#45;&gt;calibind</title>
<path fill="none" stroke="black" d="M649.8,-216.05C636.48,-206.34 619.64,-194.06 605.53,-183.77"/>
<polygon fill="black" stroke="black" points="607.28,-180.72 597.14,-177.66 603.16,-186.38 607.28,-180.72"/>
</g>
<!-- FindCal -->
<g id="node7" class="node">
<title>FindCal</title>
<ellipse fill="none" stroke="black" cx="673.04" cy="-162" rx="38.99" ry="18"/>
<text text-anchor="middle" x="673.04" y="-158.3" font-family="Times,serif" font-size="14.00">FindCal</text>
</g>
<!-- BivarGibbsDirichletwithSlice&#45;&gt;FindCal -->
<g id="edge9" class="edge">
<title>BivarGibbsDirichletwithSlice&#45;&gt;FindCal</title>
<path fill="none" stroke="black" d="M673.04,-215.7C673.04,-207.98 673.04,-198.71 673.04,-190.11"/>
<polygon fill="black" stroke="black" points="676.54,-190.1 673.04,-180.1 669.54,-190.1 676.54,-190.1"/>
</g>
<!-- SliceSample -->
<g id="node14" class="node">
<title>SliceSample</title>
<ellipse fill="none" stroke="black" cx="785.04" cy="-162" rx="55.49" ry="18"/>
<text text-anchor="middle" x="785.04" y="-158.3" font-family="Times,serif" font-size="14.00">SliceSample</text>
</g>
<!-- BivarGibbsDirichletwithSlice&#45;&gt;SliceSample -->
<g id="edge15" class="edge">
<title>BivarGibbsDirichletwithSlice&#45;&gt;SliceSample</title>
<path fill="none" stroke="black" d="M699.58,-216.41C715.19,-206.65 735.07,-194.23 751.73,-183.82"/>
<polygon fill="black" stroke="black" points="753.98,-186.54 760.6,-178.27 750.27,-180.61 753.98,-186.54"/>
</g>
<!-- thetaloglikfast -->
<g id="node15" class="node">
<title>thetaloglikfast</title>
<ellipse fill="none" stroke="black" cx="1093.04" cy="-162" rx="61.19" ry="18"/>
<text text-anchor="middle" x="1093.04" y="-158.3" font-family="Times,serif" font-size="14.00">thetaloglikfast</text>
</g>
<!-- BivarGibbsDirichletwithSlice&#45;&gt;thetaloglikfast -->
<g id="edge17" class="edge">
<title>BivarGibbsDirichletwithSlice&#45;&gt;thetaloglikfast</title>
<path fill="none" stroke="black" d="M759.71,-222.04C830.76,-212.53 933.8,-197.56 1023.04,-180 1028.05,-179.01 1033.24,-177.91 1038.43,-176.75"/>
<polygon fill="black" stroke="black" points="1039.4,-180.12 1048.36,-174.47 1037.83,-173.3 1039.4,-180.12"/>
</g>
<!-- Updatealphagammapr -->
<g id="node16" class="node">
<title>Updatealphagammapr</title>
<ellipse fill="none" stroke="black" cx="89.04" cy="-162" rx="89.08" ry="18"/>
<text text-anchor="middle" x="89.04" y="-158.3" font-family="Times,serif" font-size="14.00">Updatealphagammapr</text>
</g>
<!-- BivarGibbsDirichletwithSlice&#45;&gt;Updatealphagammapr -->
<g id="edge19" class="edge">
<title>BivarGibbsDirichletwithSlice&#45;&gt;Updatealphagammapr</title>
<path fill="none" stroke="black" d="M575.54,-224.19C477.25,-214.89 321.3,-198.95 187.04,-180 179.14,-178.88 170.9,-177.62 162.7,-176.29"/>
<polygon fill="black" stroke="black" points="163.17,-172.82 152.74,-174.65 162.03,-179.73 163.17,-172.82"/>
</g>
<!-- Updatealphalognormpr -->
<g id="node17" class="node">
<title>Updatealphalognormpr</title>
<ellipse fill="none" stroke="black" cx="427.04" cy="-162" rx="92.88" ry="18"/>
<text text-anchor="middle" x="427.04" y="-158.3" font-family="Times,serif" font-size="14.00">Updatealphalognormpr</text>
</g>
<!-- BivarGibbsDirichletwithSlice&#45;&gt;Updatealphalognormpr -->
<g id="edge20" class="edge">
<title>BivarGibbsDirichletwithSlice&#45;&gt;Updatealphalognormpr</title>
<path fill="none" stroke="black" d="M619.97,-217.9C580.82,-206.76 527.53,-191.59 486.87,-180.02"/>
<polygon fill="black" stroke="black" points="487.66,-176.61 477.09,-177.24 485.75,-183.34 487.66,-176.61"/>
</g>
<!-- Updatemuphi -->
<g id="node18" class="node">
<title>Updatemuphi</title>
<ellipse fill="none" stroke="black" cx="955.04" cy="-162" rx="59.29" ry="18"/>
<text text-anchor="middle" x="955.04" y="-158.3" font-family="Times,serif" font-size="14.00">Updatemuphi</text>
</g>
<!-- BivarGibbsDirichletwithSlice&#45;&gt;Updatemuphi -->
<g id="edge21" class="edge">
<title>BivarGibbsDirichletwithSlice&#45;&gt;Updatemuphi</title>
<path fill="none" stroke="black" d="M731.82,-218.41C781.55,-206.07 852.25,-188.51 900.69,-176.49"/>
<polygon fill="black" stroke="black" points="901.81,-179.82 910.67,-174.01 900.12,-173.03 901.81,-179.82"/>
</g>
<!-- BivarUpdatec&#45;&gt;as_row -->
<g id="edge2" class="edge">
<title>BivarUpdatec&#45;&gt;as_row</title>
<path fill="none" stroke="black" d="M213.53,-149.3C192.95,-141.26 170.12,-128.27 158.04,-108 149.85,-94.26 147.9,-84.38 158.04,-72 185.06,-39.02 307.58,-26.13 375.81,-21.45"/>
<polygon fill="black" stroke="black" points="376.12,-24.93 385.87,-20.79 375.66,-17.95 376.12,-24.93"/>
</g>
<!-- Logmargnormgamma -->
<g id="node10" class="node">
<title>Logmargnormgamma</title>
<ellipse fill="none" stroke="black" cx="256.04" cy="-90" rx="89.08" ry="18"/>
<text text-anchor="middle" x="256.04" y="-86.3" font-family="Times,serif" font-size="14.00">Logmargnormgamma</text>
</g>
<!-- BivarUpdatec&#45;&gt;Logmargnormgamma -->
<g id="edge12" class="edge">
<title>BivarUpdatec&#45;&gt;Logmargnormgamma</title>
<path fill="none" stroke="black" d="M256.04,-143.7C256.04,-135.98 256.04,-126.71 256.04,-118.11"/>
<polygon fill="black" stroke="black" points="259.54,-118.1 256.04,-108.1 252.54,-118.1 259.54,-118.1"/>
</g>
<!-- DPWalkerUpdate -->
<g id="node6" class="node">
<title>DPWalkerUpdate</title>
<ellipse fill="#ccffff" stroke="black" cx="1245.04" cy="-162" rx="72.59" ry="18"/>
<text text-anchor="middle" x="1245.04" y="-158.3" font-family="Times,serif" font-size="14.00">DPWalkerUpdate</text>
</g>
<!-- DPWalkerUpdate&#45;&gt;BivarUpdatephitau -->
<g id="edge6" class="edge">
<title>DPWalkerUpdate&#45;&gt;BivarUpdatephitau</title>
<path fill="none" stroke="black" d="M1207.33,-146.5C1179.33,-135.73 1140.95,-120.96 1110.8,-109.37"/>
<polygon fill="black" stroke="black" points="1111.92,-106.05 1101.33,-105.73 1109.41,-112.58 1111.92,-106.05"/>
</g>
<!-- sampnewphi -->
<g id="node13" class="node">
<title>sampnewphi</title>
<ellipse fill="#ccffff" stroke="black" cx="1245.04" cy="-90" rx="55.79" ry="18"/>
<text text-anchor="middle" x="1245.04" y="-86.3" font-family="Times,serif" font-size="14.00">sampnewphi</text>
</g>
<!-- DPWalkerUpdate&#45;&gt;sampnewphi -->
<g id="edge14" class="edge">
<title>DPWalkerUpdate&#45;&gt;sampnewphi</title>
<path fill="none" stroke="black" d="M1245.04,-143.7C1245.04,-135.98 1245.04,-126.71 1245.04,-118.11"/>
<polygon fill="black" stroke="black" points="1248.54,-118.1 1245.04,-108.1 1241.54,-118.1 1248.54,-118.1"/>
</g>
<!-- FindInterval -->
<g id="node8" class="node">
<title>FindInterval</title>
<ellipse fill="none" stroke="black" cx="734.04" cy="-90" rx="53.89" ry="18"/>
<text text-anchor="middle" x="734.04" y="-86.3" font-family="Times,serif" font-size="14.00">FindInterval</text>
</g>
<!-- LogLikalpha -->
<g id="node9" class="node">
<title>LogLikalpha</title>
<ellipse fill="none" stroke="black" cx="555.04" cy="-90" rx="55.79" ry="18"/>
<text text-anchor="middle" x="555.04" y="-86.3" font-family="Times,serif" font-size="14.00">LogLikalpha</text>
</g>
<!-- LogLikalpha&#45;&gt;as_row -->
<g id="edge3" class="edge">
<title>LogLikalpha&#45;&gt;as_row</title>
<path fill="none" stroke="black" d="M527.16,-74.33C506.23,-63.31 477.5,-48.19 455.36,-36.53"/>
<polygon fill="black" stroke="black" points="456.79,-33.34 446.31,-31.77 453.53,-39.53 456.79,-33.34"/>
</g>
<!-- NealFindpred -->
<g id="node11" class="node">
<title>NealFindpred</title>
<ellipse fill="none" stroke="black" cx="422.04" cy="-90" rx="59.29" ry="18"/>
<text text-anchor="middle" x="422.04" y="-86.3" font-family="Times,serif" font-size="14.00">NealFindpred</text>
</g>
<!-- NealFindpred&#45;&gt;as_row -->
<g id="edge1" class="edge">
<title>NealFindpred&#45;&gt;as_row</title>
<path fill="none" stroke="black" d="M422.04,-71.7C422.04,-63.98 422.04,-54.71 422.04,-46.11"/>
<polygon fill="black" stroke="black" points="425.54,-46.1 422.04,-36.1 418.54,-46.1 425.54,-46.1"/>
</g>
<!-- SamplefromInt -->
<g id="node12" class="node">
<title>SamplefromInt</title>
<ellipse fill="none" stroke="black" cx="871.04" cy="-90" rx="64.99" ry="18"/>
<text text-anchor="middle" x="871.04" y="-86.3" font-family="Times,serif" font-size="14.00">SamplefromInt</text>
</g>
<!-- SliceSample&#45;&gt;FindInterval -->
<g id="edge10" class="edge">
<title>SliceSample&#45;&gt;FindInterval</title>
<path fill="none" stroke="black" d="M772.96,-144.41C766.82,-135.99 759.24,-125.58 752.4,-116.2"/>
<polygon fill="black" stroke="black" points="755.11,-113.98 746.4,-107.96 749.46,-118.1 755.11,-113.98"/>
</g>
<!-- SliceSample&#45;&gt;SamplefromInt -->
<g id="edge13" class="edge">
<title>SliceSample&#45;&gt;SamplefromInt</title>
<path fill="none" stroke="black" d="M804.56,-145.12C815.94,-135.85 830.49,-124.01 843.07,-113.76"/>
<polygon fill="black" stroke="black" points="845.46,-116.33 851.01,-107.31 841.04,-110.91 845.46,-116.33"/>
</g>
<!-- Updatealphalognormpr&#45;&gt;LogLikalpha -->
<g id="edge11" class="edge">
<title>Updatealphalognormpr&#45;&gt;LogLikalpha</title>
<path fill="none" stroke="black" d="M456.73,-144.76C475.22,-134.65 499.13,-121.58 518.74,-110.85"/>
<polygon fill="black" stroke="black" points="520.61,-113.82 527.7,-105.95 517.25,-107.68 520.61,-113.82"/>
</g>
<!-- WalkerBivarDirichlet -->
<g id="node19" class="node">
<title>WalkerBivarDirichlet</title>
<ellipse fill="none" stroke="black" cx="1093.04" cy="-234" rx="87.18" ry="18"/>
<text text-anchor="middle" x="1093.04" y="-230.3" font-family="Times,serif" font-size="14.00">WalkerBivarDirichlet</text>
</g>
<!-- WalkerBivarDirichlet&#45;&gt;DPWalkerUpdate -->
<g id="edge8" class="edge">
<title>WalkerBivarDirichlet&#45;&gt;DPWalkerUpdate</title>
<path fill="none" stroke="black" d="M1127.15,-217.29C1149.56,-206.97 1179.04,-193.4 1202.91,-182.4"/>
<polygon fill="black" stroke="black" points="1204.47,-185.54 1212.09,-178.18 1201.54,-179.18 1204.47,-185.54"/>
</g>
<!-- WalkerBivarDirichlet&#45;&gt;SliceSample -->
<g id="edge16" class="edge">
<title>WalkerBivarDirichlet&#45;&gt;SliceSample</title>
<path fill="none" stroke="black" d="M1036.55,-220.16C980.31,-207.38 894.59,-187.9 839.19,-175.31"/>
<polygon fill="black" stroke="black" points="839.74,-171.84 829.21,-173.04 838.19,-178.67 839.74,-171.84"/>
</g>
<!-- WalkerBivarDirichlet&#45;&gt;thetaloglikfast -->
<g id="edge18" class="edge">
<title>WalkerBivarDirichlet&#45;&gt;thetaloglikfast</title>
<path fill="none" stroke="black" d="M1093.04,-215.7C1093.04,-207.98 1093.04,-198.71 1093.04,-190.11"/>
<polygon fill="black" stroke="black" points="1096.54,-190.1 1093.04,-180.1 1089.54,-190.1 1096.54,-190.1"/>
</g>
<!-- WalkerBivarDirichlet&#45;&gt;Updatemuphi -->
<g id="edge22" class="edge">
<title>WalkerBivarDirichlet&#45;&gt;Updatemuphi</title>
<path fill="none" stroke="black" d="M1061.73,-217.12C1041.5,-206.86 1015.04,-193.43 993.53,-182.52"/>
<polygon fill="black" stroke="black" points="994.85,-179.27 984.35,-177.86 991.68,-185.51 994.85,-179.27"/>
</g>
<!-- WalkerUpdatec -->
<g id="node21" class="node">
<title>WalkerUpdatec</title>
<ellipse fill="#ccffff" stroke="black" cx="1401.04" cy="-162" rx="65.79" ry="18"/>
<text text-anchor="middle" x="1401.04" y="-158.3" font-family="Times,serif" font-size="14.00">WalkerUpdatec</text>
</g>
<!-- WalkerBivarDirichlet&#45;&gt;WalkerUpdatec -->
<g id="edge23" class="edge">
<title>WalkerBivarDirichlet&#45;&gt;WalkerUpdatec</title>
<path fill="none" stroke="black" d="M1149.79,-220.2C1197.19,-209.49 1266.53,-193.8 1327.04,-180 1332.05,-178.86 1337.26,-177.67 1342.48,-176.47"/>
<polygon fill="black" stroke="black" points="1343.52,-179.82 1352.48,-174.18 1341.96,-173 1343.52,-179.82"/>
</g>
<!-- WalkerLogLikc -->
<g id="node20" class="node">
<title>WalkerLogLikc</title>
<ellipse fill="#ccffff" stroke="black" cx="1401.04" cy="-90" rx="66.09" ry="18"/>
<text text-anchor="middle" x="1401.04" y="-86.3" font-family="Times,serif" font-size="14.00">WalkerLogLikc</text>
</g>
<!-- WalkerUpdatec&#45;&gt;WalkerLogLikc -->
<g id="edge24" class="edge">
<title>WalkerUpdatec&#45;&gt;WalkerLogLikc</title>
<path fill="none" stroke="black" d="M1401.04,-143.7C1401.04,-135.98 1401.04,-126.71 1401.04,-118.11"/>
<polygon fill="black" stroke="black" points="1404.54,-118.1 1401.04,-108.1 1397.54,-118.1 1404.54,-118.1"/>
</g>
</g>
</svg>
