<?xml version="1.0" encoding="UTF-8" standalone="no"?>
<!DOCTYPE svg PUBLIC "-//W3C//DTD SVG 1.1//EN"
 "http://www.w3.org/Graphics/SVG/1.1/DTD/svg11.dtd">
<!-- Generated by graphviz version 6.0.1 (20220911.1526)
 -->
<!-- Title: xyz Pages: 1 -->
<svg width="1834pt" height="332pt"
 viewBox="0.00 0.00 1833.98 332.00" xmlns="http://www.w3.org/2000/svg" xmlns:xlink="http://www.w3.org/1999/xlink">
<g id="graph0" class="graph" transform="scale(1 1) rotate(0) translate(4 328)">
<title>xyz</title>
<polygon fill="white" stroke="none" points="-4,4 -4,-328 1829.98,-328 1829.98,4 -4,4"/>
<!-- NPCalibrationWalker -->
<g id="node1" class="node">
<title>NPCalibrationWalker</title>
<polygon fill="#ffff00" stroke="black" points="459.68,-324 325.68,-324 325.68,-288 459.68,-288 459.68,-324"/>
<text text-anchor="middle" x="392.68" y="-302.3" font-family="Times,serif" font-size="14.00">NPCalibrationWalker</text>
</g>
<!-- calibind -->
<g id="node9" class="node">
<title>calibind</title>
<ellipse fill="#ccffff" stroke="black" cx="496.68" cy="-162" rx="38.99" ry="18"/>
<text text-anchor="middle" x="496.68" y="-158.3" font-family="Times,serif" font-size="14.00">calibind</text>
</g>
<!-- NPCalibrationWalker&#45;&gt;calibind -->
<g id="edge25" class="edge">
<title>NPCalibrationWalker&#45;&gt;calibind</title>
<path fill="none" stroke="black" d="M405.23,-287.87C423.54,-262.87 457.68,-216.25 478.68,-187.59"/>
<polygon fill="black" stroke="black" points="481.65,-189.45 484.74,-179.31 476,-185.31 481.65,-189.45"/>
</g>
<!-- FindCalCurve -->
<g id="node12" class="node">
<title>FindCalCurve</title>
<ellipse fill="#ccffff" stroke="black" cx="379.68" cy="-162" rx="60.39" ry="18"/>
<text text-anchor="middle" x="379.68" y="-158.3" font-family="Times,serif" font-size="14.00">FindCalCurve</text>
</g>
<!-- NPCalibrationWalker&#45;&gt;FindCalCurve -->
<g id="edge33" class="edge">
<title>NPCalibrationWalker&#45;&gt;FindCalCurve</title>
<path fill="none" stroke="black" d="M391.11,-287.87C388.9,-263.67 384.83,-219.21 382.19,-190.39"/>
<polygon fill="black" stroke="black" points="385.65,-189.83 381.26,-180.19 378.68,-190.47 385.65,-189.83"/>
</g>
<!-- find_spd_estimate -->
<g id="node13" class="node">
<title>find_spd_estimate</title>
<ellipse fill="#ccffff" stroke="black" cx="558.68" cy="-234" rx="75.29" ry="18"/>
<text text-anchor="middle" x="558.68" y="-230.3" font-family="Times,serif" font-size="14.00">find_spd_estimate</text>
</g>
<!-- NPCalibrationWalker&#45;&gt;find_spd_estimate -->
<g id="edge10" class="edge">
<title>NPCalibrationWalker&#45;&gt;find_spd_estimate</title>
<path fill="none" stroke="black" d="M433.29,-287.88C457.72,-277.58 488.84,-264.45 513.97,-253.86"/>
<polygon fill="black" stroke="black" points="515.42,-257.04 523.28,-249.93 512.71,-250.59 515.42,-257.04"/>
</g>
<!-- post_process_and_plot -->
<g id="node19" class="node">
<title>post_process_and_plot</title>
<ellipse fill="#ccffff" stroke="black" cx="260.68" cy="-234" rx="90.98" ry="18"/>
<text text-anchor="middle" x="260.68" y="-230.3" font-family="Times,serif" font-size="14.00">post_process_and_plot</text>
</g>
<!-- NPCalibrationWalker&#45;&gt;post_process_and_plot -->
<g id="edge6" class="edge">
<title>NPCalibrationWalker&#45;&gt;post_process_and_plot</title>
<path fill="none" stroke="black" d="M360.39,-287.88C342.07,-278.16 319.02,-265.94 299.7,-255.69"/>
<polygon fill="black" stroke="black" points="301.3,-252.58 290.83,-250.99 298.03,-258.76 301.3,-252.58"/>
</g>
<!-- plotindpost -->
<g id="node20" class="node">
<title>plotindpost</title>
<ellipse fill="#ccffff" stroke="black" cx="101.68" cy="-234" rx="50.09" ry="18"/>
<text text-anchor="middle" x="101.68" y="-230.3" font-family="Times,serif" font-size="14.00">plotindpost</text>
</g>
<!-- NPCalibrationWalker&#45;&gt;plotindpost -->
<g id="edge43" class="edge">
<title>NPCalibrationWalker&#45;&gt;plotindpost</title>
<path fill="none" stroke="black" d="M325.44,-290.68C278.99,-280.54 215.89,-266.25 160.68,-252 156.84,-251.01 152.88,-249.95 148.9,-248.86"/>
<polygon fill="black" stroke="black" points="149.62,-245.43 139.05,-246.11 147.74,-252.17 149.62,-245.43"/>
</g>
<!-- WalkerBivarDirichlet -->
<g id="node29" class="node">
<title>WalkerBivarDirichlet</title>
<ellipse fill="#ccffff" stroke="black" cx="1160.68" cy="-234" rx="87.18" ry="18"/>
<text text-anchor="middle" x="1160.68" y="-230.3" font-family="Times,serif" font-size="14.00">WalkerBivarDirichlet</text>
</g>
<!-- NPCalibrationWalker&#45;&gt;WalkerBivarDirichlet -->
<g id="edge1" class="edge">
<title>NPCalibrationWalker&#45;&gt;WalkerBivarDirichlet</title>
<path fill="none" stroke="black" d="M460.09,-291.24C467.36,-290.02 474.66,-288.91 481.68,-288 713.63,-258.01 773.73,-272.84 1006.68,-252 1029.55,-249.95 1054.3,-247.38 1077.12,-244.86"/>
<polygon fill="black" stroke="black" points="1077.56,-248.34 1087.11,-243.75 1076.79,-241.38 1077.56,-248.34"/>
</g>
<!-- NPCalibrationNeal -->
<g id="node2" class="node">
<title>NPCalibrationNeal</title>
<polygon fill="#ffff00" stroke="black" points="241.68,-324 121.68,-324 121.68,-288 241.68,-288 241.68,-324"/>
<text text-anchor="middle" x="181.68" y="-302.3" font-family="Times,serif" font-size="14.00">NPCalibrationNeal</text>
</g>
<!-- BivarGibbsDirichletwithSlice -->
<g id="node6" class="node">
<title>BivarGibbsDirichletwithSlice</title>
<ellipse fill="#ccffff" stroke="black" cx="881.68" cy="-234" rx="115.88" ry="18"/>
<text text-anchor="middle" x="881.68" y="-230.3" font-family="Times,serif" font-size="14.00">BivarGibbsDirichletwithSlice</text>
</g>
<!-- NPCalibrationNeal&#45;&gt;BivarGibbsDirichletwithSlice -->
<g id="edge4" class="edge">
<title>NPCalibrationNeal&#45;&gt;BivarGibbsDirichletwithSlice</title>
<path fill="none" stroke="black" d="M241.78,-297.02C265.14,-294.02 292.14,-290.7 316.68,-288 474.96,-270.61 658.59,-254.06 772.47,-244.21"/>
<polygon fill="black" stroke="black" points="772.92,-247.68 782.58,-243.34 772.32,-240.71 772.92,-247.68"/>
</g>
<!-- NPCalibrationNeal&#45;&gt;calibind -->
<g id="edge24" class="edge">
<title>NPCalibrationNeal&#45;&gt;calibind</title>
<path fill="none" stroke="black" d="M121.64,-297.88C92.7,-291.09 60.49,-277.84 42.68,-252 33.61,-238.82 31.88,-227.8 42.68,-216 73.26,-182.59 404.43,-189.64 448.68,-180 451.88,-179.3 455.15,-178.45 458.42,-177.51"/>
<polygon fill="black" stroke="black" points="459.61,-180.8 468.09,-174.45 457.5,-174.13 459.61,-180.8"/>
</g>
<!-- NPCalibrationNeal&#45;&gt;FindCalCurve -->
<g id="edge32" class="edge">
<title>NPCalibrationNeal&#45;&gt;FindCalCurve</title>
<path fill="none" stroke="black" d="M121.68,-295.71C58.24,-283.45 -27.86,-258.32 9.68,-216 54.24,-165.77 243.61,-191.94 309.68,-180 314.99,-179.04 320.5,-177.92 325.98,-176.73"/>
<polygon fill="black" stroke="black" points="326.81,-180.13 335.79,-174.5 325.26,-173.3 326.81,-180.13"/>
</g>
<!-- NPCalibrationNeal&#45;&gt;find_spd_estimate -->
<g id="edge12" class="edge">
<title>NPCalibrationNeal&#45;&gt;find_spd_estimate</title>
<path fill="none" stroke="black" d="M241.84,-293.83C309.8,-281.21 420.15,-260.72 491.05,-247.56"/>
<polygon fill="black" stroke="black" points="492.02,-250.94 501.22,-245.67 490.74,-244.05 492.02,-250.94"/>
</g>
<!-- NPCalibrationNeal&#45;&gt;post_process_and_plot -->
<g id="edge8" class="edge">
<title>NPCalibrationNeal&#45;&gt;post_process_and_plot</title>
<path fill="none" stroke="black" d="M201.21,-287.7C211.21,-278.84 223.53,-267.92 234.36,-258.33"/>
<polygon fill="black" stroke="black" points="236.76,-260.87 241.92,-251.62 232.12,-255.63 236.76,-260.87"/>
</g>
<!-- NPCalibrationNeal&#45;&gt;plotindpost -->
<g id="edge42" class="edge">
<title>NPCalibrationNeal&#45;&gt;plotindpost</title>
<path fill="none" stroke="black" d="M161.91,-287.7C151.56,-278.64 138.75,-267.44 127.62,-257.69"/>
<polygon fill="black" stroke="black" points="129.69,-254.86 119.86,-250.91 125.08,-260.13 129.69,-254.86"/>
</g>
<!-- TestDensity_all -->
<g id="node3" class="node">
<title>TestDensity_all</title>
<polygon fill="#ffff00" stroke="black" points="788.18,-324 687.18,-324 687.18,-288 788.18,-288 788.18,-324"/>
<text text-anchor="middle" x="737.68" y="-302.3" font-family="Times,serif" font-size="14.00">TestDensity_all</text>
</g>
<!-- TestDensity_all&#45;&gt;BivarGibbsDirichletwithSlice -->
<g id="edge5" class="edge">
<title>TestDensity_all&#45;&gt;BivarGibbsDirichletwithSlice</title>
<path fill="none" stroke="black" d="M772.91,-287.88C792.78,-278.22 817.77,-266.07 838.78,-255.86"/>
<polygon fill="black" stroke="black" points="840.35,-258.98 847.81,-251.47 837.29,-252.69 840.35,-258.98"/>
</g>
<!-- TestDensity_all&#45;&gt;calibind -->
<g id="edge28" class="edge">
<title>TestDensity_all&#45;&gt;calibind</title>
<path fill="none" stroke="black" d="M727.06,-287.7C713.88,-267.63 689.58,-234.9 660.68,-216 615.51,-186.45 595.91,-197.01 544.68,-180 541.8,-179.04 538.82,-178.03 535.83,-177.01"/>
<polygon fill="black" stroke="black" points="536.92,-173.68 526.32,-173.7 534.62,-180.29 536.92,-173.68"/>
</g>
<!-- FindCal -->
<g id="node11" class="node">
<title>FindCal</title>
<ellipse fill="#ccffff" stroke="black" cx="1636.68" cy="-162" rx="38.99" ry="18"/>
<text text-anchor="middle" x="1636.68" y="-158.3" font-family="Times,serif" font-size="14.00">FindCal</text>
</g>
<!-- TestDensity_all&#45;&gt;FindCal -->
<g id="edge31" class="edge">
<title>TestDensity_all&#45;&gt;FindCal</title>
<path fill="none" stroke="black" d="M788.39,-301.71C881.56,-295.25 1086.06,-279.13 1256.68,-252 1405.8,-228.29 1443.45,-221.29 1588.68,-180 1591.65,-179.16 1594.7,-178.23 1597.75,-177.25"/>
<polygon fill="black" stroke="black" points="1599.05,-180.51 1607.43,-174.02 1596.83,-173.87 1599.05,-180.51"/>
</g>
<!-- TestDensity_all&#45;&gt;FindCalCurve -->
<g id="edge35" class="edge">
<title>TestDensity_all&#45;&gt;FindCalCurve</title>
<path fill="none" stroke="black" d="M716.46,-287.94C704.22,-277.84 688.72,-264.59 675.68,-252 660.07,-236.92 661.67,-226.52 642.68,-216 565.98,-173.48 534.4,-198.5 448.68,-180 443.96,-178.98 439.06,-177.87 434.16,-176.73"/>
<polygon fill="black" stroke="black" points="434.67,-173.26 424.14,-174.35 433.06,-180.07 434.67,-173.26"/>
</g>
<!-- TestDensity_all&#45;&gt;find_spd_estimate -->
<g id="edge13" class="edge">
<title>TestDensity_all&#45;&gt;find_spd_estimate</title>
<path fill="none" stroke="black" d="M693.89,-287.88C667.14,-277.41 632.93,-264.03 605.62,-253.35"/>
<polygon fill="black" stroke="black" points="606.85,-250.08 596.27,-249.7 604.3,-256.6 606.85,-250.08"/>
</g>
<!-- TestDensity_all&#45;&gt;post_process_and_plot -->
<g id="edge9" class="edge">
<title>TestDensity_all&#45;&gt;post_process_and_plot</title>
<path fill="none" stroke="black" d="M687.14,-296.32C670.74,-293.57 652.45,-290.58 635.68,-288 535.4,-272.56 419.75,-256.47 343.7,-246.13"/>
<polygon fill="black" stroke="black" points="344.08,-242.65 333.7,-244.78 343.14,-249.59 344.08,-242.65"/>
</g>
<!-- TestDensity_all&#45;&gt;WalkerBivarDirichlet -->
<g id="edge3" class="edge">
<title>TestDensity_all&#45;&gt;WalkerBivarDirichlet</title>
<path fill="none" stroke="black" d="M788.29,-296.63C862.01,-284.43 999.48,-261.68 1085.19,-247.49"/>
<polygon fill="black" stroke="black" points="1085.82,-250.94 1095.12,-245.85 1084.68,-244.03 1085.82,-250.94"/>
</g>
<!-- RealDatasetExamples -->
<g id="node4" class="node">
<title>RealDatasetExamples</title>
<polygon fill="#ffff00" stroke="black" points="626.68,-324 490.68,-324 490.68,-288 626.68,-288 626.68,-324"/>
<text text-anchor="middle" x="558.68" y="-302.3" font-family="Times,serif" font-size="14.00">RealDatasetExamples</text>
</g>
<!-- RealDatasetExamples&#45;&gt;calibind -->
<g id="edge27" class="edge">
<title>RealDatasetExamples&#45;&gt;calibind</title>
<path fill="none" stroke="black" d="M602.76,-287.98C618.24,-279.62 633.94,-267.85 642.68,-252 650.41,-237.99 651.87,-229.1 642.68,-216 641.87,-214.84 579.31,-192.4 536.35,-177.09"/>
<polygon fill="black" stroke="black" points="537.3,-173.72 526.71,-173.66 534.96,-180.31 537.3,-173.72"/>
</g>
<!-- RealDatasetExamples&#45;&gt;FindCalCurve -->
<g id="edge34" class="edge">
<title>RealDatasetExamples&#45;&gt;FindCalCurve</title>
<path fill="none" stroke="black" d="M528.61,-287.92C512.17,-278.12 491.74,-265.18 474.68,-252 448.55,-231.81 421.3,-205.67 402.72,-186.95"/>
<polygon fill="black" stroke="black" points="404.82,-184.1 395.32,-179.42 399.83,-189.01 404.82,-184.1"/>
</g>
<!-- RealDatasetExamples&#45;&gt;find_spd_estimate -->
<g id="edge11" class="edge">
<title>RealDatasetExamples&#45;&gt;find_spd_estimate</title>
<path fill="none" stroke="black" d="M558.68,-287.7C558.68,-279.98 558.68,-270.71 558.68,-262.11"/>
<polygon fill="black" stroke="black" points="562.18,-262.1 558.68,-252.1 555.18,-262.1 562.18,-262.1"/>
</g>
<!-- RealDatasetExamples&#45;&gt;post_process_and_plot -->
<g id="edge7" class="edge">
<title>RealDatasetExamples&#45;&gt;post_process_and_plot</title>
<path fill="none" stroke="black" d="M490.32,-288.94C441.28,-277.42 375.58,-261.99 327.02,-250.58"/>
<polygon fill="black" stroke="black" points="327.77,-247.16 317.24,-248.28 326.17,-253.98 327.77,-247.16"/>
</g>
<!-- RealDatasetExamples&#45;&gt;WalkerBivarDirichlet -->
<g id="edge2" class="edge">
<title>RealDatasetExamples&#45;&gt;WalkerBivarDirichlet</title>
<path fill="none" stroke="black" d="M626.91,-294.86C643.51,-292.5 661.22,-290.08 677.68,-288 823.62,-269.6 860.47,-268.07 1006.68,-252 1029.06,-249.54 1053.26,-246.87 1075.7,-244.4"/>
<polygon fill="black" stroke="black" points="1076.33,-247.85 1085.88,-243.27 1075.56,-240.89 1076.33,-247.85"/>
</g>
<!-- as_row -->
<g id="node5" class="node">
<title>as_row</title>
<ellipse fill="none" stroke="black" cx="512.68" cy="-18" rx="36.29" ry="18"/>
<text text-anchor="middle" x="512.68" y="-14.3" font-family="Times,serif" font-size="14.00">as_row</text>
</g>
<!-- BivarUpdatec -->
<g id="node7" class="node">
<title>BivarUpdatec</title>
<ellipse fill="none" stroke="black" cx="424.68" cy="-90" rx="59.59" ry="18"/>
<text text-anchor="middle" x="424.68" y="-86.3" font-family="Times,serif" font-size="14.00">BivarUpdatec</text>
</g>
<!-- BivarGibbsDirichletwithSlice&#45;&gt;BivarUpdatec -->
<g id="edge21" class="edge">
<title>BivarGibbsDirichletwithSlice&#45;&gt;BivarUpdatec</title>
<path fill="none" stroke="black" d="M843.99,-216.76C823.83,-207.31 799.02,-194.42 778.68,-180 759.71,-166.54 761.51,-154.38 740.68,-144 662.59,-105.08 561.56,-93.96 495.02,-91.18"/>
<polygon fill="black" stroke="black" points="494.76,-87.67 484.64,-90.8 494.51,-94.66 494.76,-87.67"/>
</g>
<!-- BivarUpdatephitau -->
<g id="node8" class="node">
<title>BivarUpdatephitau</title>
<ellipse fill="none" stroke="black" cx="1104.68" cy="-90" rx="77.19" ry="18"/>
<text text-anchor="middle" x="1104.68" y="-86.3" font-family="Times,serif" font-size="14.00">BivarUpdatephitau</text>
</g>
<!-- BivarGibbsDirichletwithSlice&#45;&gt;BivarUpdatephitau -->
<g id="edge22" class="edge">
<title>BivarGibbsDirichletwithSlice&#45;&gt;BivarUpdatephitau</title>
<path fill="none" stroke="black" d="M918.14,-216.88C938,-207.37 962.55,-194.4 982.68,-180 1001.61,-166.47 1002.31,-158.28 1020.68,-144 1035.48,-132.5 1052.85,-121.21 1067.94,-112.03"/>
<polygon fill="black" stroke="black" points="1069.75,-115.03 1076.53,-106.88 1066.15,-109.02 1069.75,-115.03"/>
</g>
<!-- BivarGibbsDirichletwithSlice&#45;&gt;calibind -->
<g id="edge26" class="edge">
<title>BivarGibbsDirichletwithSlice&#45;&gt;calibind</title>
<path fill="none" stroke="black" d="M797.55,-221.58C713.79,-209.88 591.19,-191.78 544.68,-180 541.55,-179.21 538.34,-178.3 535.14,-177.31"/>
<polygon fill="black" stroke="black" points="536.2,-173.98 525.61,-174.21 534.03,-180.64 536.2,-173.98"/>
</g>
<!-- BivarGibbsDirichletwithSlice&#45;&gt;FindCal -->
<g id="edge30" class="edge">
<title>BivarGibbsDirichletwithSlice&#45;&gt;FindCal</title>
<path fill="none" stroke="black" d="M977.1,-223.7C1005.29,-221.07 1036.22,-218.3 1064.68,-216 1297.36,-197.2 1360.11,-227.4 1588.68,-180 1591.93,-179.33 1595.25,-178.49 1598.57,-177.54"/>
<polygon fill="black" stroke="black" points="1599.88,-180.8 1608.36,-174.46 1597.78,-174.12 1599.88,-180.8"/>
</g>
<!-- SliceSample -->
<g id="node24" class="node">
<title>SliceSample</title>
<ellipse fill="none" stroke="black" cx="1084.68" cy="-162" rx="55.49" ry="18"/>
<text text-anchor="middle" x="1084.68" y="-158.3" font-family="Times,serif" font-size="14.00">SliceSample</text>
</g>
<!-- BivarGibbsDirichletwithSlice&#45;&gt;SliceSample -->
<g id="edge48" class="edge">
<title>BivarGibbsDirichletwithSlice&#45;&gt;SliceSample</title>
<path fill="none" stroke="black" d="M926.99,-217.38C960.17,-205.94 1005.05,-190.46 1038.45,-178.94"/>
<polygon fill="black" stroke="black" points="1039.67,-182.22 1047.98,-175.65 1037.39,-175.61 1039.67,-182.22"/>
</g>
<!-- thetaloglikfast -->
<g id="node25" class="node">
<title>thetaloglikfast</title>
<ellipse fill="none" stroke="black" cx="1218.68" cy="-162" rx="61.19" ry="18"/>
<text text-anchor="middle" x="1218.68" y="-158.3" font-family="Times,serif" font-size="14.00">thetaloglikfast</text>
</g>
<!-- BivarGibbsDirichletwithSlice&#45;&gt;thetaloglikfast -->
<g id="edge50" class="edge">
<title>BivarGibbsDirichletwithSlice&#45;&gt;thetaloglikfast</title>
<path fill="none" stroke="black" d="M952.68,-219.75C1006.58,-209.49 1082.46,-194.61 1148.68,-180 1153.59,-178.92 1158.69,-177.75 1163.79,-176.56"/>
<polygon fill="black" stroke="black" points="1164.63,-179.96 1173.56,-174.25 1163.02,-173.15 1164.63,-179.96"/>
</g>
<!-- Updatealphagammapr -->
<g id="node26" class="node">
<title>Updatealphagammapr</title>
<ellipse fill="none" stroke="black" cx="642.68" cy="-162" rx="89.08" ry="18"/>
<text text-anchor="middle" x="642.68" y="-158.3" font-family="Times,serif" font-size="14.00">Updatealphagammapr</text>
</g>
<!-- BivarGibbsDirichletwithSlice&#45;&gt;Updatealphagammapr -->
<g id="edge52" class="edge">
<title>BivarGibbsDirichletwithSlice&#45;&gt;Updatealphagammapr</title>
<path fill="none" stroke="black" d="M829.82,-217.81C791.85,-206.69 740.3,-191.59 700.92,-180.06"/>
<polygon fill="black" stroke="black" points="701.76,-176.66 691.18,-177.21 699.8,-183.37 701.76,-176.66"/>
</g>
<!-- Updatealphalognormpr -->
<g id="node27" class="node">
<title>Updatealphalognormpr</title>
<ellipse fill="none" stroke="black" cx="880.68" cy="-162" rx="92.88" ry="18"/>
<text text-anchor="middle" x="880.68" y="-158.3" font-family="Times,serif" font-size="14.00">Updatealphalognormpr</text>
</g>
<!-- BivarGibbsDirichletwithSlice&#45;&gt;Updatealphalognormpr -->
<g id="edge53" class="edge">
<title>BivarGibbsDirichletwithSlice&#45;&gt;Updatealphalognormpr</title>
<path fill="none" stroke="black" d="M881.44,-215.7C881.33,-207.98 881.19,-198.71 881.07,-190.11"/>
<polygon fill="black" stroke="black" points="884.57,-190.05 880.93,-180.1 877.57,-190.15 884.57,-190.05"/>
</g>
<!-- Updatemuphi -->
<g id="node28" class="node">
<title>Updatemuphi</title>
<ellipse fill="none" stroke="black" cx="1356.68" cy="-162" rx="59.29" ry="18"/>
<text text-anchor="middle" x="1356.68" y="-158.3" font-family="Times,serif" font-size="14.00">Updatemuphi</text>
</g>
<!-- BivarGibbsDirichletwithSlice&#45;&gt;Updatemuphi -->
<g id="edge54" class="edge">
<title>BivarGibbsDirichletwithSlice&#45;&gt;Updatemuphi</title>
<path fill="none" stroke="black" d="M977.16,-223.72C1059.95,-214.92 1182.79,-200.06 1288.68,-180 1293.64,-179.06 1298.77,-177.98 1303.89,-176.83"/>
<polygon fill="black" stroke="black" points="1304.74,-180.23 1313.68,-174.55 1303.15,-173.41 1304.74,-180.23"/>
</g>
<!-- BivarUpdatec&#45;&gt;as_row -->
<g id="edge19" class="edge">
<title>BivarUpdatec&#45;&gt;as_row</title>
<path fill="none" stroke="black" d="M445.09,-72.76C457.37,-63 473.13,-50.46 486.34,-39.96"/>
<polygon fill="black" stroke="black" points="488.53,-42.68 494.18,-33.72 484.18,-37.2 488.53,-42.68"/>
</g>
<!-- Logmargnormgamma -->
<g id="node16" class="node">
<title>Logmargnormgamma</title>
<ellipse fill="none" stroke="black" cx="327.68" cy="-18" rx="89.08" ry="18"/>
<text text-anchor="middle" x="327.68" y="-14.3" font-family="Times,serif" font-size="14.00">Logmargnormgamma</text>
</g>
<!-- BivarUpdatec&#45;&gt;Logmargnormgamma -->
<g id="edge39" class="edge">
<title>BivarUpdatec&#45;&gt;Logmargnormgamma</title>
<path fill="none" stroke="black" d="M402.67,-73.12C389.8,-63.83 373.35,-51.95 359.13,-41.69"/>
<polygon fill="black" stroke="black" points="360.78,-38.57 350.62,-35.55 356.68,-44.24 360.78,-38.57"/>
</g>
<!-- DPWalkerUpdate -->
<g id="node10" class="node">
<title>DPWalkerUpdate</title>
<ellipse fill="none" stroke="black" cx="1506.68" cy="-162" rx="72.59" ry="18"/>
<text text-anchor="middle" x="1506.68" y="-158.3" font-family="Times,serif" font-size="14.00">DPWalkerUpdate</text>
</g>
<!-- DPWalkerUpdate&#45;&gt;BivarUpdatephitau -->
<g id="edge23" class="edge">
<title>DPWalkerUpdate&#45;&gt;BivarUpdatephitau</title>
<path fill="none" stroke="black" d="M1453.39,-149.53C1443.85,-147.6 1433.98,-145.68 1424.68,-144 1321.13,-125.31 1294.32,-126.21 1190.68,-108 1184.39,-106.89 1177.84,-105.69 1171.3,-104.46"/>
<polygon fill="black" stroke="black" points="1171.54,-100.94 1161.06,-102.5 1170.22,-107.82 1171.54,-100.94"/>
</g>
<!-- sampnewphi -->
<g id="node23" class="node">
<title>sampnewphi</title>
<ellipse fill="none" stroke="black" cx="1506.68" cy="-90" rx="55.79" ry="18"/>
<text text-anchor="middle" x="1506.68" y="-86.3" font-family="Times,serif" font-size="14.00">sampnewphi</text>
</g>
<!-- DPWalkerUpdate&#45;&gt;sampnewphi -->
<g id="edge47" class="edge">
<title>DPWalkerUpdate&#45;&gt;sampnewphi</title>
<path fill="none" stroke="black" d="M1506.68,-143.7C1506.68,-135.98 1506.68,-126.71 1506.68,-118.11"/>
<polygon fill="black" stroke="black" points="1510.18,-118.1 1506.68,-108.1 1503.18,-118.1 1510.18,-118.1"/>
</g>
<!-- find_spd_estimate&#45;&gt;calibind -->
<g id="edge15" class="edge">
<title>find_spd_estimate&#45;&gt;calibind</title>
<path fill="none" stroke="black" d="M543.67,-216.05C535.83,-207.2 526.12,-196.23 517.56,-186.57"/>
<polygon fill="black" stroke="black" points="519.95,-183.99 510.7,-178.83 514.71,-188.64 519.95,-183.99"/>
</g>
<!-- find_spd_estimate&#45;&gt;FindCalCurve -->
<g id="edge14" class="edge">
<title>find_spd_estimate&#45;&gt;FindCalCurve</title>
<path fill="none" stroke="black" d="M521.16,-218.33C492.85,-207.26 453.93,-192.04 424.08,-180.36"/>
<polygon fill="black" stroke="black" points="425.31,-177.09 414.73,-176.7 422.76,-183.61 425.31,-177.09"/>
</g>
<!-- FindInterval -->
<g id="node14" class="node">
<title>FindInterval</title>
<ellipse fill="none" stroke="black" cx="955.68" cy="-90" rx="53.89" ry="18"/>
<text text-anchor="middle" x="955.68" y="-86.3" font-family="Times,serif" font-size="14.00">FindInterval</text>
</g>
<!-- LogLikalpha -->
<g id="node15" class="node">
<title>LogLikalpha</title>
<ellipse fill="none" stroke="black" cx="742.68" cy="-90" rx="55.79" ry="18"/>
<text text-anchor="middle" x="742.68" y="-86.3" font-family="Times,serif" font-size="14.00">LogLikalpha</text>
</g>
<!-- LogLikalpha&#45;&gt;as_row -->
<g id="edge20" class="edge">
<title>LogLikalpha&#45;&gt;as_row</title>
<path fill="none" stroke="black" d="M703.41,-77.05C661.36,-64.25 595,-44.05 552.68,-31.17"/>
<polygon fill="black" stroke="black" points="553.57,-27.79 542.99,-28.22 551.53,-34.48 553.57,-27.79"/>
</g>
<!-- MixtureDens -->
<g id="node17" class="node">
<title>MixtureDens</title>
<ellipse fill="none" stroke="black" cx="100.68" cy="-90" rx="57.69" ry="18"/>
<text text-anchor="middle" x="100.68" y="-86.3" font-family="Times,serif" font-size="14.00">MixtureDens</text>
</g>
<!-- NealFindpred -->
<g id="node18" class="node">
<title>NealFindpred</title>
<ellipse fill="none" stroke="black" cx="241.68" cy="-162" rx="59.29" ry="18"/>
<text text-anchor="middle" x="241.68" y="-158.3" font-family="Times,serif" font-size="14.00">NealFindpred</text>
</g>
<!-- NealFindpred&#45;&gt;as_row -->
<g id="edge18" class="edge">
<title>NealFindpred&#45;&gt;as_row</title>
<path fill="none" stroke="black" d="M285.78,-149.81C294.04,-147.8 302.61,-145.79 310.68,-144 391.61,-126.08 434.6,-166.14 493.68,-108 509.84,-92.1 513.85,-66.08 514.26,-46.27"/>
<polygon fill="black" stroke="black" points="517.76,-45.97 514.17,-36.01 510.76,-46.04 517.76,-45.97"/>
</g>
<!-- NealFindpred&#45;&gt;MixtureDens -->
<g id="edge40" class="edge">
<title>NealFindpred&#45;&gt;MixtureDens</title>
<path fill="none" stroke="black" d="M212.12,-146.33C190.97,-135.83 162.3,-121.59 139.33,-110.19"/>
<polygon fill="black" stroke="black" points="140.72,-106.97 130.2,-105.65 137.6,-113.24 140.72,-106.97"/>
</g>
<!-- PredNewDens -->
<g id="node21" class="node">
<title>PredNewDens</title>
<ellipse fill="none" stroke="black" cx="241.68" cy="-90" rx="61.99" ry="18"/>
<text text-anchor="middle" x="241.68" y="-86.3" font-family="Times,serif" font-size="14.00">PredNewDens</text>
</g>
<!-- NealFindpred&#45;&gt;PredNewDens -->
<g id="edge44" class="edge">
<title>NealFindpred&#45;&gt;PredNewDens</title>
<path fill="none" stroke="black" d="M241.68,-143.7C241.68,-135.98 241.68,-126.71 241.68,-118.11"/>
<polygon fill="black" stroke="black" points="245.18,-118.1 241.68,-108.1 238.18,-118.1 245.18,-118.1"/>
</g>
<!-- post_process_and_plot&#45;&gt;NealFindpred -->
<g id="edge17" class="edge">
<title>post_process_and_plot&#45;&gt;NealFindpred</title>
<path fill="none" stroke="black" d="M255.99,-215.7C253.87,-207.9 251.32,-198.51 248.97,-189.83"/>
<polygon fill="black" stroke="black" points="252.32,-188.84 246.33,-180.1 245.57,-190.67 252.32,-188.84"/>
</g>
<!-- WalkerFindpred -->
<g id="node30" class="node">
<title>WalkerFindpred</title>
<ellipse fill="none" stroke="black" cx="96.68" cy="-162" rx="67.69" ry="18"/>
<text text-anchor="middle" x="96.68" y="-158.3" font-family="Times,serif" font-size="14.00">WalkerFindpred</text>
</g>
<!-- post_process_and_plot&#45;&gt;WalkerFindpred -->
<g id="edge16" class="edge">
<title>post_process_and_plot&#45;&gt;WalkerFindpred</title>
<path fill="none" stroke="black" d="M224.29,-217.46C199.49,-206.88 166.54,-192.82 140.34,-181.63"/>
<polygon fill="black" stroke="black" points="141.59,-178.36 131.02,-177.65 138.84,-184.8 141.59,-178.36"/>
</g>
<!-- PredNewDens&#45;&gt;Logmargnormgamma -->
<g id="edge38" class="edge">
<title>PredNewDens&#45;&gt;Logmargnormgamma</title>
<path fill="none" stroke="black" d="M261.63,-72.76C272.86,-63.62 287.08,-52.05 299.44,-41.99"/>
<polygon fill="black" stroke="black" points="301.7,-44.66 307.25,-35.63 297.28,-39.23 301.7,-44.66"/>
</g>
<!-- SamplefromInt -->
<g id="node22" class="node">
<title>SamplefromInt</title>
<ellipse fill="none" stroke="black" cx="1264.68" cy="-90" rx="64.99" ry="18"/>
<text text-anchor="middle" x="1264.68" y="-86.3" font-family="Times,serif" font-size="14.00">SamplefromInt</text>
</g>
<!-- SliceSample&#45;&gt;FindInterval -->
<g id="edge36" class="edge">
<title>SliceSample&#45;&gt;FindInterval</title>
<path fill="none" stroke="black" d="M1057.33,-146.15C1038.26,-135.81 1012.61,-121.89 991.86,-110.63"/>
<polygon fill="black" stroke="black" points="993.46,-107.52 983,-105.82 990.12,-113.67 993.46,-107.52"/>
</g>
<!-- SliceSample&#45;&gt;SamplefromInt -->
<g id="edge46" class="edge">
<title>SliceSample&#45;&gt;SamplefromInt</title>
<path fill="none" stroke="black" d="M1118.96,-147.67C1147.43,-136.6 1188.17,-120.75 1219.34,-108.63"/>
<polygon fill="black" stroke="black" points="1220.63,-111.89 1228.68,-105 1218.09,-105.36 1220.63,-111.89"/>
</g>
<!-- Updatealphalognormpr&#45;&gt;LogLikalpha -->
<g id="edge37" class="edge">
<title>Updatealphalognormpr&#45;&gt;LogLikalpha</title>
<path fill="none" stroke="black" d="M849.02,-144.94C828.64,-134.6 802.05,-121.11 780.55,-110.21"/>
<polygon fill="black" stroke="black" points="781.88,-106.96 771.38,-105.56 778.71,-113.2 781.88,-106.96"/>
</g>
<!-- WalkerBivarDirichlet&#45;&gt;DPWalkerUpdate -->
<g id="edge29" class="edge">
<title>WalkerBivarDirichlet&#45;&gt;DPWalkerUpdate</title>
<path fill="none" stroke="black" d="M1220.99,-221C1274.52,-210.33 1354.83,-194.25 1424.68,-180 1430.52,-178.81 1436.6,-177.56 1442.68,-176.31"/>
<polygon fill="black" stroke="black" points="1443.79,-179.65 1452.88,-174.2 1442.38,-172.8 1443.79,-179.65"/>
</g>
<!-- WalkerBivarDirichlet&#45;&gt;SliceSample -->
<g id="edge49" class="edge">
<title>WalkerBivarDirichlet&#45;&gt;SliceSample</title>
<path fill="none" stroke="black" d="M1142.29,-216.05C1132.53,-207.07 1120.4,-195.9 1109.79,-186.12"/>
<polygon fill="black" stroke="black" points="1112.11,-183.51 1102.39,-179.31 1107.37,-188.66 1112.11,-183.51"/>
</g>
<!-- WalkerBivarDirichlet&#45;&gt;thetaloglikfast -->
<g id="edge51" class="edge">
<title>WalkerBivarDirichlet&#45;&gt;thetaloglikfast</title>
<path fill="none" stroke="black" d="M1174.72,-216.05C1181.78,-207.54 1190.45,-197.07 1198.23,-187.68"/>
<polygon fill="black" stroke="black" points="1201.09,-189.72 1204.77,-179.79 1195.7,-185.26 1201.09,-189.72"/>
</g>
<!-- WalkerBivarDirichlet&#45;&gt;Updatemuphi -->
<g id="edge55" class="edge">
<title>WalkerBivarDirichlet&#45;&gt;Updatemuphi</title>
<path fill="none" stroke="black" d="M1202.25,-218.15C1233.82,-206.88 1277.24,-191.37 1310,-179.67"/>
<polygon fill="black" stroke="black" points="1311.56,-182.83 1319.8,-176.17 1309.21,-176.24 1311.56,-182.83"/>
</g>
<!-- WalkerUpdatec -->
<g id="node32" class="node">
<title>WalkerUpdatec</title>
<ellipse fill="none" stroke="black" cx="1759.68" cy="-162" rx="65.79" ry="18"/>
<text text-anchor="middle" x="1759.68" y="-158.3" font-family="Times,serif" font-size="14.00">WalkerUpdatec</text>
</g>
<!-- WalkerBivarDirichlet&#45;&gt;WalkerUpdatec -->
<g id="edge56" class="edge">
<title>WalkerBivarDirichlet&#45;&gt;WalkerUpdatec</title>
<path fill="none" stroke="black" d="M1242.78,-227.81C1346.28,-220.56 1529.47,-205.34 1684.68,-180 1690.51,-179.05 1696.56,-177.92 1702.58,-176.7"/>
<polygon fill="black" stroke="black" points="1703.58,-180.07 1712.65,-174.58 1702.14,-173.22 1703.58,-180.07"/>
</g>
<!-- WalkerFindpred&#45;&gt;MixtureDens -->
<g id="edge41" class="edge">
<title>WalkerFindpred&#45;&gt;MixtureDens</title>
<path fill="none" stroke="black" d="M97.67,-143.7C98.11,-135.98 98.64,-126.71 99.13,-118.11"/>
<polygon fill="black" stroke="black" points="102.63,-118.29 99.71,-108.1 95.64,-117.89 102.63,-118.29"/>
</g>
<!-- WalkerFindpred&#45;&gt;PredNewDens -->
<g id="edge45" class="edge">
<title>WalkerFindpred&#45;&gt;PredNewDens</title>
<path fill="none" stroke="black" d="M127.79,-145.98C149.44,-135.53 178.49,-121.51 201.84,-110.24"/>
<polygon fill="black" stroke="black" points="203.64,-113.25 211.13,-105.75 200.6,-106.95 203.64,-113.25"/>
</g>
<!-- WalkerLogLikc -->
<g id="node31" class="node">
<title>WalkerLogLikc</title>
<ellipse fill="none" stroke="black" cx="1759.68" cy="-90" rx="66.09" ry="18"/>
<text text-anchor="middle" x="1759.68" y="-86.3" font-family="Times,serif" font-size="14.00">WalkerLogLikc</text>
</g>
<!-- WalkerUpdatec&#45;&gt;WalkerLogLikc -->
<g id="edge57" class="edge">
<title>WalkerUpdatec&#45;&gt;WalkerLogLikc</title>
<path fill="none" stroke="black" d="M1759.68,-143.7C1759.68,-135.98 1759.68,-126.71 1759.68,-118.11"/>
<polygon fill="black" stroke="black" points="1763.18,-118.1 1759.68,-108.1 1756.18,-118.1 1763.18,-118.1"/>
</g>
</g>
</svg>
